/* XPM */
static const char *fish1[] = {
/* columns rows colors chars-per-pixel */
"60 60 160 2 ",
"   c #0D0F17",
".  c #0D0F18",
"X  c #120F17",
"o  c #150F18",
"O  c #1D0F18",
"+  c #0D1017",
"@  c #0E1018",
"#  c #111017",
"$  c #131319",
"%  c #1B141B",
"&  c #1E191E",
"*  c #230E19",
"=  c #2B0E1A",
"-  c #330D1B",
";  c #3A0D1C",
":  c #23141D",
">  c #2B131E",
",  c #22191E",
"<  c #35121E",
"1  c #3B101F",
"2  c #1F1A20",
"3  c #251620",
"4  c #2C1622",
"5  c #241C22",
"6  c #2C1B25",
"7  c #321724",
"8  c #3A1521",
"9  c #341925",
"0  c #3C1924",
"q  c #3C1C2A",
"w  c #2D2027",
"e  c #2F2129",
"r  c #33232B",
"t  c #3B232E",
"y  c #3E2831",
"u  c #430D1D",
"i  c #4A0E1F",
"p  c #4B0F20",
"a  c #451423",
"s  c #4E1324",
"d  c #411825",
"f  c #4D1827",
"g  c #411D2A",
"h  c #4E1A2A",
"j  c #511D2C",
"k  c #541D32",
"l  c #5C1F35",
"z  c #45202B",
"x  c #4E212E",
"c  c #52212F",
"v  c #472533",
"b  c #482C37",
"n  c #532230",
"m  c #5E2136",
"M  c #582538",
"N  c #54313E",
"B  c #622037",
"V  c #622338",
"C  c #573441",
"Z  c #593441",
"A  c #662D40",
"S  c #603745",
"D  c #693445",
"F  c #623947",
"G  c #643A48",
"H  c #6A3C4B",
"J  c #754152",
"K  c #7B4455",
"L  c #862746",
"P  c #8C2947",
"I  c #8B2A49",
"U  c #912A49",
"Y  c #9A2D4E",
"T  c #8F3A54",
"R  c #A12C4F",
"E  c #A42E52",
"W  c #A43052",
"Q  c #B13056",
"!  c #B13459",
"~  c #BA345B",
"^  c #C1365F",
"/  c #C43760",
"(  c #CD3661",
")  c #CC3B64",
"_  c #D23864",
"`  c #DE3E6C",
"'  c #E03F6D",
"]  c #824558",
"[  c #8F475D",
"{  c #894B5E",
"}  c #8D4C61",
"|  c #934F64",
" . c #9D536A",
".. c #A34C66",
"X. c #BA4567",
"o. c #A8546D",
"O. c #A6586F",
"+. c #A95971",
"@. c #B45D77",
"#. c #BE5876",
"$. c #B75F79",
"%. c #B85F7A",
"&. c #BD627D",
"*. c #C0496C",
"=. c #D5466F",
"-. c #DB406C",
";. c #D54770",
":. c #C05474",
">. c #D9557B",
",. c #D9597D",
"<. c #E1416E",
"1. c #E44672",
"2. c #EB4574",
"3. c #E54874",
"4. c #EB4976",
"5. c #ED4C7A",
"6. c #F04E7B",
"7. c #E15079",
"8. c #EF517D",
"9. c #F0527E",
"0. c #C0647F",
"q. c #F15681",
"w. c #F35B86",
"e. c #F45E88",
"r. c #C96784",
"t. c #CA6884",
"y. c #D16585",
"u. c #D06987",
"i. c #D26988",
"p. c #ED668C",
"a. c #F5638C",
"s. c #F8668E",
"d. c #ED6F93",
"f. c #F66790",
"g. c #F76991",
"h. c #F86C93",
"j. c #E57494",
"k. c #E97596",
"l. c #EC7798",
"z. c #F77096",
"x. c #FA7097",
"c. c #F1779A",
"v. c #FC769C",
"b. c #FB7399",
"n. c #F57B9D",
"m. c #FA7B9F",
"M. c #FD799E",
"N. c #FC799E",
"B. c #F77DA0",
"V. c #FE7AA0",
"C. c #FE7FA3",
"Z. c #FE7DA2",
"A. c #FF7FA4",
"S. c #FD7DA2",
"D. c #FF80A4",
"F. c #FF80A4",
"G. c #FF81A6",
"H. c #FF80A4",
"J. c #DCC48E",
"K. c black",
/* pixels */
"J.J.J.J.J.J.J.J.J.J.J.J.J.J.J.J.J.J.J.J.J.J.J.J.J.J.J.J.J.J.J.J.J.J.J.J.J.J.J.J.J.J.J.J.J.J.J.J.J.J.J.J.J.J.J.J.J.J.J.J.",
"J.J.J.J.J.J.J.J.J.J.J.J.J.J.J.J.J.J.J.J.J.J.J.J.J.J.J.J.J.J.J.J.J.J.J.J.J.J.J.J.J.J.J.J.J.J.J.J.J.J.J.J.J.J.J.J.J.J.J.J.",
"J.J.J.J.J.J.J.J.J.J.J.J.J.J.J.J.J.J.J.J.J.J.J.J.J.J.J.J.J.J.J.J.J.J.J.J.J.J.J.J.J.J.J.J.J.J.J.J.J.J.J.J.J.J.J.J.J.J.J.J.",
"J.J.J.J.J.J.J.J.J.J.J.J.J.J.J.J.J.J.J.J.J.J.J.J.J.J.J.J.J.J.J.J.J.J.J.J.J.J.J.J.J.J.J.J.J.J.J.J.J.J.J.J.J.J.J.J.J.J.J.J.",
"J.J.J.J.J.J.J.J.J.J.J.J.J.J.J.J.J.J.J.J.J.J.J.J.J.J.J.J.J.J.J.J.J.J.J.J.J.J.J.J.J.J.J.J.J.J.J.J.J.J.J.J.J.J.J.J.J.J.J.J.",
"J.J.J.J.J.J.J.J.J.J.J.J.J.J.J.J.J.J.J.J.J.J.J.J.J.J.J.J.J.J.J.J.J.J.J.J.J.J.J.J.J.J.J.J.J.J.J.J.J.J.J.J.J.J.J.J.J.J.J.J.",
"J.J.J.J.J.J.J.J.J.J.J.J.J.J.J.J.J.J.J.J.J.J.J.J.J.J.J.J.J.J.J.J.J.J.J.J.J.J.J.J.J.J.J.J.J.J.J.J.J.J.J.J.J.J.J.J.J.J.J.J.",
"J.J.J.J.J.J.J.J.J.J.J.J.J.J.J.J.J.J.J.J.J.J.J.J.J.J.J.J.J.J.J.J.J.J.J.J.J.J.J.J.J.J.J.J.J.J.J.J.J.J.J.J.J.J.J.J.J.J.J.J.",
"J.J.J.J.J.J.J.J.J.J.J.J.J.J.J.J.J.J.J.J.J.J.J.J.J.J.J.J.J.J.J.J.J.J.J.J.J.J.J.J.J.J.J.J.J.J.J.J.J.J.J.J.J.J.J.J.J.J.J.J.",
"J.J.J.J.J.J.J.J.J.J.J.J.J.J.J.J.J.J.J.J.J.J.J.J.J.J.J.J.J.J.J.J.J.J.J.J.J.J.J.J.J.J.J.J.J.J.J.J.J.J.J.J.J.J.J.J.J.J.J.J.",
"J.J.J.J.J.J.J.J.J.J.J.J.J.J.J.J.J.J.J.J.J.J.J.J.J.J.J.J.J.J.J.J.J.J.J.J.J.J.J.J.J.J.J.J.J.J.J.J.J.J.J.J.J.J.J.J.J.J.J.J.",
"J.J.J.J.J.J.J.J.J.J.J.J.J.J.J.J.J.J.J.J.J.J.J.J.J.J.J.J.J.J.J.J.J.J.J.J.J.J.J.J.J.J.J.J.J.J.J.J.J.J.J.J.J.J.J.J.J.J.J.J.",
"J.J.J.J.J.J.J.J.J.J.J.J.J.J.J.J.J.J.J.J.J.J.J.J.J.J.J.J.J.J.J.J.J.J.J.J.J.J.J.J.J.J.J.J.J.J.J.J.J.J.J.J.J.J.J.J.J.J.J.J.",
"J.J.J.J.J.J.J.J.J.J.J.J.J.J.J.J.J.J.J.J.J.J.J.J.J.J.J.J.J.J.J.J.J.J.J.J.J.J.J.J.J.J.J.J.J.J.J.J.J.J.J.J.J.J.J.J.J.J.J.J.",
"J.J.J.J.J.J.J.J.J.J.J.J.J.J.J.J.J.J.J.J.J.J.J.J.J.J.J.J.J.J.J.J.J.J.J.J.J.J.J.J.J.J.J.J.J.J.J.J.J.J.J.J.J.J.J.J.J.J.J.J.",
"J.J.J.J.J.J.J.J.J.J.J.J.J.J.J.J.J.J.J.J.J.J.J.J.J.J.J.J.J.J.J.J.J.J.J.J.J.J.J.J.J.J.J.J.J.J.J.J.J.J.J.J.J.J.J.J.J.J.J.J.",
"J.J.J.J.J.J.J.J.J.J.J.J.J.J.J.J.J.J.J.J.J.J.J.J.J.J.J.J.J.J.J.J.J.J.J.J.J.J.J.J.J.J.J.J.J.J.J.J.J.J.J.J.J.J.J.J.J.J.J.J.",
"J.J.J.J.J.J.J.J.J.J.J.J.J.J.J.J.J.J.J.J.J.J.J.J.J.J.J.+   + +     + J.J.J.J.J.J.J.J.J.J.J.J.J.J.J.J.J.J.J.J.J.J.J.J.J.J.",
"J.J.J.J.J.J.J.J.J.J.J.J.J.J.J.J.J.J.J.J.J.J.J.J.J.+ + + X * * * X + . J.J.J.J.J.J.J.J.J.J.J.J.J.J.J.J.J.J.J.J.J.J.J.J.J.",
"J.J.J.J.J.J.J.J.J.J.J.J.J.J.J.J.J.J.J.J.J.J.    + + X * - i i i = # + J.J.J.J.J.J.J.J.J.J.J.J.J.J.J.J.J.J.J.J.J.J.J.J.J.",
"J.J.J.J.J.J.J.J.J.J.J.J.J.J.J.J.J.J.J.J.J.@ + + X = ; i s s s s u o + J.J.J.J.J.J.J.J.J.J.J.J.J.J.J.J.J.J.J.J.J.J.J.J.J.",
"J.J.J.J.J.J.J.J.J.J.J.J.J.J.J.J.J.J.J.J.+ + + * ; i p s s f s s i O + J.J.J.J.J.J.J.J.J.J.J.J.J.J.J.J.J.J.J.J.J.J.J.J.J.",
"J.J.J.J.J.J.J.J.J.J.J.J.J.J.J.J.J.J.J.J.  + o u s s s s j j j s p - # J.J.J.J.J.J.J.J.J.J.J.J.J.J.J.J.J.J.J.J.J.J.J.J.J.",
"J.J.J.J.J.J.J.J.J.J.J.J.J.J.J.J.J.  + + + + O a s f j j c j j s i ; # J.J.J.J.J.J.J.J.J.J.J.J.J.J.J.J.J.J.J.J.J.J.J.J.J.",
"J.J.J.J.J.J.J.J.J.J.J.J.J.J.J.J.+ +   + + + $ 8 s j c c n j s s i =   J.J.J.J.J.J.J.J.J.J.J.J.J.J.J.J.J.J.J.J.J.J.J.J.J.",
"J.J.J.J.J.J.J.J.J.J.J.J.J.J.+ @ % q L I g # # : f j n n c g > > * X + J.J.J.J.J.J.J.+ + X # X   + @ J.J.J.J.J.J.J.J.J.J.",
"J.J.J.J.J.J.J.J.J.J.J.J.J.+ + 4 U ^ 2.5.*.v # $ , q x x z , #     + + J.J.J.J.J.J.J.+ X - ; ; * +   J.J.J.J.J.J.J.J.J.J.",
"J.J.J.J.J.J.J.J.J.J.J.J.  + 4 Y 1.6.q.a.g.#.N e $ % , , % $ 6 q q 4 # + J.J.J.J.J.+   O u p p u *     J.J.J.J.J.J.J.J.J.",
"J.J.J.J.J.J.J.J.J.J.J.+   4 Y 3.q.a.g.z.v.m.j.@.G Z 5 5 N S ..>.;.! g   + + J.J.J.+ X ; p s s i ; o + J.J.J.J.J.J.J.J.J.",
"J.J.J.J.J.J.J.J.J.J.+ + 4 Y 4.w.s.h.v.V.C.D.D.C.n.l.| { j.c.z.g.e.5.! B 7 + + J.+ + * u s s s s u o + J.J.J.J.J.J.J.J.J.",
"J.J.J.J.J.J.J.J.J.J.+ 4 Y 3.w.s.z.M.m.C.A.D.D.D.D.D.S.S.D.D.M.b.s.w.5.<.W 4 + + + # - p s j s s u o + J.J.J.J.J.J.J.J.J.",
"J.J.J.J.J.J.J.J.J.+ + k ` 9.a.h.V.i.J %.D.D.D.D.D.D.D.D.D.D.C.M.b.f.w.9.` k # + + * i s s h a i = X   J.J.J.J.J.J.J.J.J.",
"J.J.J.J.J.J.J.J.J.  , E 4.w.g.v.A.$.2 } D.D.D.D.D.D.D.D.D.D.D.C.V.v.g.w.5.! 6 + + = s s f 8 : % # + + J.J.J.J.J.J.J.J.J.",
"J.J.J.J.J.J.J.J.  @ h ) 9.a.v.C.D.&.5 } D.D.D.D.D.D.D.D.D.D.D.D.C.C.b.g.w.=.q + + > s 0 , % # + +   J.J.J.J.J.J.J.J.J.J.",
"J.J.J.J.J.J.J.J.  % E 4.w.h.m.0.O.K & } D.D.D.D.D.D.D.D.D.D.D.D.D.C.V.b.g.,.t # $ 7 8 % $ % % + + + J.J.J.J.J.J.J.J.J.J.",
"J.J.J.J.J.J.J.J.+ % Q 5.e.b.c.F & % $ C | | +.n.D.D.D.D.D.D.D.D.D.C.C.V.M.d.K & $ , & $ $ > 8 = o + + J.J.J.J.J.J.J.J.J.",
"J.J.J.J.J.J.J.J.+ % Q 5.e.b.m.&.} r $ 5 6 5 Z k.D.D.D.D.D.D.D.D.D.D.D.D.D.D.t.r $ $ $ % % > s p - #   J.J.J.J.J.J.J.J.J.",
"J.J.J.J.J.J.J.J.+ % Q 5.e.v.D.D.B.| & H &.&.t.S.D.D.D.D.D.D.D.D.D.D.D.D.A.A.l.] & $ % 8 d a s i = +   J.J.J.J.J.J.J.J.J.",
"J.J.J.J.J.J.J.J.  % Q 6.w.h.C.D.D.t.Z +.D.D.D.D.D.D.D.D.D.D.D.D.D.D.D.C.C.M.y.b $ % 8 s s s s i O     J.J.J.J.J.J.J.J.J.",
"J.J.J.J.J.J.J.J.  % P 1.q.g.M.C.D.S.l.n.D.D.D.D.D.D.D.n.t.&.0.0.r.n.A.C.v.z.:.5 $ < s s s p p i O   J.J.J.J.J.J.J.J.J.J.",
"J.J.J.J.J.J.J.J.    7 / 6.a.v.C.D.D.D.D.D.D.D.D.D.D.n.| r 5 5 5 r  .c.v.g.a.X.3 : i p i u - = = o   J.J.J.J.J.J.J.J.J.J.",
"J.J.J.J.J.J.J.J.J.  4 ^ 6.a.b.V.C.D.D.D.D.D.D.D.S.@.K w $ , 9 , $ e o.g.a.8.! % O = = = * + + + +   J.J.J.J.J.J.J.J.J.J.",
"J.J.J.J.J.J.J.J.J.J.3 ! 5.e.g.h.v.M.C.C.D.D.D.n.+.t $ , q z c z & # D a.q.-.B # + +     + + J.J.J.J.J.J.J.J.J.J.J.J.J.J.",
"J.J.J.J.J.J.J.J.J.J.# m ` 9.w.w.s.h.b.M.C.C.S.+.r $ & g n c j h 0 % A 5.4.~ 7 + + J.J.J.J.J.J.J.J.J.J.J.J.J.J.J.J.J.J.J.",
"J.J.J.J.J.J.J.J.J.J.  9 R ) 4.4.9.w.s.g.b.M.u.y $ , g j j j h h a $ V ) E h # + J.J.J.J.J.J.J.J.J.J.J.J.J.J.J.J.J.J.J.J.",
"J.J.J.J.J.J.J.J.J.J.  # % k Y ( 2.4.9.w.s.p.[ & & g j j j j s s u o g m % # + J.J.J.J.J.J.J.J.J.J.J.J.J.J.J.J.J.J.J.J.J.",
"J.J.J.J.J.J.J.J.J.J.J.    # % l P _ ' 1.7.T 5 % 0 h f h s s p ; * # # #   + J.J.J.J.J.J.J.J.J.J.J.J.J.J.J.J.J.J.J.J.J.J.",
"J.J.J.J.J.J.J.J.J.J.J.J.J.J.    % k l m M : $ 1 s s s s s p - o + + + + J.J.J.J.J.J.J.J.J.J.J.J.J.J.J.J.J.J.J.J.J.J.J.J.",
"J.J.J.J.J.J.J.J.J.J.J.J.J.J.J.J.+ + + + + + O ; p s i u ; * o + + + J.J.J.J.J.J.J.J.J.J.J.J.J.J.J.J.J.J.J.J.J.J.J.J.J.J.",
"J.J.J.J.J.J.J.J.J.J.J.J.J.J.J.J.J.J.  + + + + * ; u ; O X + + + J.J.J.J.J.J.J.J.J.J.J.J.J.J.J.J.J.J.J.J.J.J.J.J.J.J.J.J.",
"J.J.J.J.J.J.J.J.J.J.J.J.J.J.J.J.J.J.J.J.    + + o o X         J.J.J.J.J.J.J.J.J.J.J.J.J.J.J.J.J.J.J.J.J.J.J.J.J.J.J.J.J.",
"J.J.J.J.J.J.J.J.J.J.J.J.J.J.J.J.J.J.J.J.J.J.J.    . . J.J.J.J.J.J.J.J.J.J.J.J.J.J.J.J.J.J.J.J.J.J.J.J.J.J.J.J.J.J.J.J.J.",
"J.J.J.J.J.J.J.J.J.J.J.J.J.J.J.J.J.J.J.J.J.J.J.J.J.J.J.J.J.J.J.J.J.J.J.J.J.J.J.J.J.J.J.J.J.J.J.J.J.J.J.J.J.J.J.J.J.J.J.J.",
"J.J.J.J.J.J.J.J.J.J.J.J.J.J.J.J.J.J.J.J.J.J.J.J.J.J.J.J.J.J.J.J.J.J.J.J.J.J.J.J.J.J.J.J.J.J.J.J.J.J.J.J.J.J.J.J.J.J.J.J.",
"J.J.J.J.J.J.J.J.J.J.J.J.J.J.J.J.J.J.J.J.J.J.J.J.J.J.J.J.J.J.J.J.J.J.J.J.J.J.J.J.J.J.J.J.J.J.J.J.J.J.J.J.J.J.J.J.J.J.J.J.",
"J.J.J.J.J.J.J.J.J.J.J.J.J.J.J.J.J.J.J.J.J.J.J.J.J.J.J.J.J.J.J.J.J.J.J.J.J.J.J.J.J.J.J.J.J.J.J.J.J.J.J.J.J.J.J.J.J.J.J.J.",
"J.J.J.J.J.J.J.J.J.J.J.J.J.J.J.J.J.J.J.J.J.J.J.J.J.J.J.J.J.J.J.J.J.J.J.J.J.J.J.J.J.J.J.J.J.J.J.J.J.J.J.J.J.J.J.J.J.J.J.J.",
"J.J.J.J.J.J.J.J.J.J.J.J.J.J.J.J.J.J.J.J.J.J.J.J.J.J.J.J.J.J.J.J.J.J.J.J.J.J.J.J.J.J.J.J.J.J.J.J.J.J.J.J.J.J.J.J.J.J.J.J.",
"J.J.J.J.J.J.J.J.J.J.J.J.J.J.J.J.J.J.J.J.J.J.J.J.J.J.J.J.J.J.J.J.J.J.J.J.J.J.J.J.J.J.J.J.J.J.J.J.J.J.J.J.J.J.J.J.J.J.J.J.",
"J.J.J.J.J.J.J.J.J.J.J.J.J.J.J.J.J.J.J.J.J.J.J.J.J.J.J.J.J.J.J.J.J.J.J.J.J.J.J.J.J.J.J.J.J.J.J.J.J.J.J.J.J.J.J.J.J.J.J.J."
};