/* XPM */
static const char *exit1[] = {
/* columns rows colors chars-per-pixel */
"60 60 150 2 ",
"   c #575757",
".  c #5C5C5C",
"X  c #7F7747",
"o  c #7E764A",
"O  c #6E6B5A",
"+  c #736E54",
"@  c #706C59",
"#  c #767051",
"$  c #5F5F60",
"%  c #5F6060",
"&  c #646463",
"*  c #686764",
"=  c #6B6B6C",
"-  c #787667",
";  c #73726B",
":  c #78766B",
">  c #7B796C",
",  c #727272",
"<  c #7C7B73",
"1  c #777778",
"2  c #777879",
"3  c #7D7D7D",
"4  c #9F2E2E",
"5  c #A32F2F",
"6  c #A53A2A",
"7  c #AA3C2B",
"8  c #B53F2F",
"9  c #A62F30",
"0  c #A63030",
"q  c #AB3131",
"w  c #B33333",
"e  c #BC3636",
"r  c #BE3F3B",
"t  c #C43F36",
"y  c #C13738",
"u  c #C13938",
"i  c #BE6C1B",
"p  c #B7402F",
"a  c #B8402F",
"s  c #BE4131",
"d  c #BF403A",
"f  c #BD5E3E",
"g  c #C46E1D",
"h  c #CA701F",
"j  c #CC552E",
"k  c #C24234",
"l  c #C14139",
"z  c #C05F3C",
"x  c #D26D29",
"c  c #CD7120",
"v  c #D17221",
"b  c #C76534",
"n  c #C96632",
"m  c #CB6830",
"M  c #C0603B",
"N  c #B65945",
"B  c #BB5C40",
"V  c #B1564A",
"C  c #807746",
"Z  c #877D40",
"A  c #817848",
"S  c #9F6A5E",
"D  c #AE754E",
"F  c #B57A47",
"G  c #B1774C",
"H  c #B47949",
"J  c #AD7350",
"K  c #817F71",
"L  c #BEAB3E",
"P  c #DB9712",
"I  c #E18B1B",
"U  c #E59A15",
"Y  c #E0971D",
"T  c #EAA711",
"R  c #EBA910",
"E  c #D38E2A",
"W  c #D69127",
"Q  c #C78636",
"!  c #C98734",
"~  c #CB8932",
"^  c #C2823B",
"/  c #CCAE2E",
"(  c #CBB32D",
")  c #D0B727",
"_  c #D8B526",
"`  c #D1B826",
"'  c #DBBB23",
"]  c #D4B22A",
"[  c #D0B82F",
"{  c #C4AF33",
"}  c #CFAE30",
"|  c #C2AE3D",
" . c #C7B131",
".. c #CDB632",
"X. c #D0B730",
"o. c #D0B830",
"O. c #F1C60E",
"+. c #F0CE0F",
"@. c #E4C513",
"#. c #E0C31F",
"$. c #DEC221",
"%. c #E0C320",
"&. c #8E865C",
"*. c #948B5C",
"=. c #99915F",
"-. c #9C935C",
";. c #9B925B",
":. c #A6994D",
">. c #AA9D4E",
",. c #B49C4B",
"<. c #B0994F",
"1. c #B29B4D",
"2. c #A18F5E",
"3. c #A28F5E",
"4. c #A69257",
"5. c #A69A52",
"6. c #A89B51",
"7. c #AB9E55",
"8. c #A3905B",
"9. c #A5915A",
"0. c #A3905C",
"q. c #A1975F",
"w. c #A89358",
"e. c #A59A5A",
"r. c #B4A443",
"t. c #B2A246",
"y. c #B2A246",
"u. c #B2A244",
"i. c #BCA143",
"p. c #BDA242",
"a. c #BDA241",
"s. c #B9A747",
"d. c #B3A44C",
"f. c #B8A748",
"g. c #AEA051",
"h. c #B0A150",
"j. c #92846E",
"k. c #979063",
"l. c #9C9363",
"z. c #979069",
"x. c #828073",
"c. c #888574",
"v. c #8B8874",
"b. c #85837B",
"n. c #888678",
"m. c #7F7F80",
"M. c #7F8081",
"N. c #808080",
"B. c #818080",
"V. c #808080",
/* pixels */
"  , B.B.B.B.B.B.B.3 & , B.B.B.B.B.B.B.3 & , 3 B.B.B.B.B.B.3 & , 3 B.B.B.B.B.B.3 & , B.B.B.B.B.B.B.3 & , B.B.B.B.B.B.B.B.",
"  = 3 3 B.3 3 3 3 3 & , 3 3 3 3 3 3 3 1 & , 3 3 3 3 3 3 3 3 & = 3 3 3 3 3 3 3 3 & , 3 3 3 3 3 3 3 < & = 3 3 3 3 3 3 3 3 ",
"  & = = = = = = = = . & = = = = = = = = . & = = = = = = = = . & = = = = = = = =   & = = = = = = = = . & = = = = = = = = ",
"& & & & & & . . & & & & & & & &   . & & & & & & & & . . & & & & & & & & . . & & & & & & & & . . & & & & & & & & . . & & ",
"3 3 3 3 3 3 & & 3 3 3 3 3 3 3 3 & = 3 3 3 3 3 3 3 3 & = 3 3 3 3 3 3 3 3 & = 3 3 3 3 3 3 3 3 & * 3 3 3 3 3 3 3 3 & = 3 3 ",
"B.B.B.B.B.3 & = 3 B.B.B.B.B.B.3 & = B.B.B.B.B.B.B.3 & = 3 B.B.B.B.B.B.3 & = 3 B.B.B.B.B.B.3 & = 3 B.B.B.B.B.B.< * = 3 B.",
"B.B.B.B.B.3 & = 3 B.B.B.B.B.B.3 & = 3 B.B.B.B.B.B.3 & = 3 B.B.B.B.B.B.3 & = 3 B.B.B.B.B.B.3 & = 3 B.B.B.B.B.B.3 & = 3 B.",
"= = = = = = . . = = = = = = = = . $ = = = = = = = = . & = = = = = = = = . & = = = = = = = = . & = = = = = = = = . & = = ",
"Z + # o O X + # o O C + # o O o + + o O X + # o O C + # o @ o + # o O C + + o O A + # o O o + # o O A + # o O o + # o * ",
"@.>.y.( =.` 5.y. .=.) 5.y.{ -.( >.y./ k.` 5.y.( =.( 6.r.{ -.( >.y.( k.` 5.y.( *.( >.r.{ -.( >.y. .*.) :.y.( =.( >.y.{ c.",
"O.,.a.] 3.' <.a.] 8._ <.a.} 8._ ,.a.] 3.' <.a.] 3._ <.a./ 4._ ,.a.] 3.' <.a.] 8._ <.a.} w._ ,.a.] 3.' <.a.] 8._ <.a.] j.",
"x B f n N m f M b N m B M b N n f M n N n B M n N n B M b N n f f n N m B f b N m B M b N n f M n N m B M n N n f f n V ",
"u u u u u u u u u u u u u u u u u u u u u u u u u u u u u u u u u u u u u u u u u u u u u u u u u u u u u u u u u u u u ",
"y y y y y y y y y y y y y y y y y y y y y y y y y y y y y y y y y y y y y y y y y y y y y y y y y y y y y y y y y y y y ",
"j j j j j j j j j j j j j j j j j j j j j j j j j j j j j j j j j j j j j j j j j j j j j j j j j j j j j j j j j j j j ",
"T R T T R T R R T T T R R T R T R T T R T R R T R T R R T R T R R T R T R R T R T R R T R T R T T R T R R T R T R T T R ",
"i h h g v g c h g v g c h g v g h h g v g c h g v g c h g v g h h g v g h h g v g c h g v g h h g v g c h g v g c h h v ",
"0 0 0 w e q 0 0 q e q 0 0 w e q 0 0 w e q 0 0 w e q 0 0 w e q 0 0 w e q 0 0 q e q 0 0 w e q 0 0 w e 0 0 0 q e q 0 0 q e ",
"q 0 0 w e w 0 0 w e w 0 0 w e w 0 0 w e w 0 0 w e w 0 0 w e w 0 0 w e w 0 0 w e w 0 0 w e w 0 0 w e w 0 0 w e w 0 0 w u ",
"4 q q 0 w 0 w q 0 w 9 w q 0 w 5 w q 0 w 5 w q 0 w 0 w q 0 w 0 w q 0 w 0 w q 0 w 5 w q 0 w 0 w q 0 w 5 w q 0 w 0 w q 0 w ",
"w e e q 5 w e e q 5 w e e q 5 w e e q 5 w e e q 5 w e e q 5 w e e q 5 q e e q 5 w e e q 5 w e e q 5 w e e q 5 w e e q 5 ",
"0 w w 0 q 0 w w 0 0 0 w w 0 q 0 w w 0 q 0 w w 0 q 0 w w 0 q 0 w w 0 q 0 w w 0 q 0 w w 0 q 0 w w 0 0 0 w w 0 0 0 w w 0 q ",
"0 0 0 w e q 0 0 w e q 0 0 w e q 0 0 q e q 0 0 q e q 0 0 q e q 0 0 w e q 0 0 w e q 0 0 q e q 0 0 w e q 0 0 w e q 0 0 w e ",
"w 0 0 w e w 0 0 w e w 0 0 w e w 0 0 w e w 0 0 w e w 0 0 w e w 0 0 w e w 0 0 w e w 0 0 w e w 0 0 w e w 0 0 w e w 0 0 w u ",
"5 w q 0 w 5 w q 0 w 0 w q 0 w 0 w q 0 w 5 w q 0 w 0 w q 0 w 0 w q 0 w 5 w q 0 w 0 w q 0 w 5 q q 0 w 5 w q 0 w 0 w w 0 w ",
"w e e q 5 w e e q 5 w e e q 5 w e e q 0 w e e q 5 w e e q 0 w e e q 5 w e e q 5 w e e q 0 w e e q 5 w e e q 5 q e e q 5 ",
"9 w w 0 q 0 w w 0 0 0 w w 0 q 0 w w 0 q 0 w w 0 0 0 w w 0 q 0 w w 0 q 0 w w 0 q 0 w w 0 q 0 w w 0 q 0 w w 0 q 0 w w 0 w ",
"0 0 0 w e q 0 0 w e q 0 0 w e q 0 0 q e q 0 0 w e q 0 0 w e q 0 0 w e q 0 0 q e q 0 0 w e q 0 0 w e q 0 0 q e q q 0 w e ",
"w 0 0 w e w 0 0 w e w 0 0 w e w 0 0 w e w 0 0 w e w 0 0 w e w 0 0 w e w 0 0 w e w 0 0 w e w 0 0 w e w 0 0 w e w 0 0 w e ",
"5 w q 0 w 0 w q 0 w 0 w q 0 w 0 w q 0 w 0 w q 0 w 0 w q 0 w 0 q q 0 w 0 w q 0 w 0 w q 0 w 0 w q 0 w 5 w q 0 w 0 w q 0 w ",
"w e e q 5 w e e q 5 w e e q 0 w e e q 5 w e e q 0 w e e q 0 w e e q 5 w e e q 5 w e e q 0 w e e q 5 w e e q 5 w e e q 5 ",
"0 w w 0 q 0 w w 0 0 0 w w 0 q 0 w w 0 0 0 w w 0 0 0 w w 0 0 0 w w 0 q 0 w w 0 q 0 w w 0 0 0 w w 0 q 0 w w 0 0 0 w w 0 w ",
"0 0 0 q e q 0 0 w e q 0 0 w e q 0 0 q e q 0 0 w e q 0 0 w e q 0 0 q e q 0 0 w e q 0 0 w e q 0 0 w e q 0 0 q e q 0 0 w e ",
"w 0 0 w e w 0 0 w e w 0 0 w e w 0 0 w e w 0 0 w e w 0 0 w e w 0 0 w e w 9 0 w e w 0 0 w e w 0 0 w e w 5 0 w e w 0 0 w u ",
"5 q q 0 w 9 w q 0 w 0 w q 0 w 0 w q 0 w 0 w q 0 w 0 w q 0 w 0 q q 0 w 5 w q 0 w 0 w q 0 w 0 w q 0 w 5 w q 0 w 0 w q 0 w ",
"w e e q 5 w e e q 5 w e e q 5 w e e q 5 w e e q 5 w e e q 5 w e e q 5 w e e q 5 q e e q 5 w e e q 5 w e e q 5 w e e q 5 ",
"0 w w 0 q 0 w w 0 q 0 w w 0 q 0 w w 0 q 0 w w 0 q 0 w w 0 q 0 w w 0 q 0 w w 0 q 0 w w 0 q 0 w w 0 0 0 w w 0 0 0 w w 0 q ",
"0 0 0 q e q 0 0 w e q 0 0 q e 0 0 0 q e q 0 0 w e q 0 0 w e q 0 0 q e q 0 0 w e q 0 0 w e q 0 0 w e q 0 0 w e q 0 0 w e ",
"w 0 0 w e w 0 0 w e w 0 0 w e w 0 0 w e w 0 0 w e w 0 0 w e w 0 0 w e w 0 0 w e w 0 0 w e w 0 0 w e w 0 0 w e w 0 0 w u ",
"5 w q 9 w 9 w q 9 w 9 w q 0 w 9 q q 9 w 9 w q 9 w 9 w q 0 w 9 q q 9 w 9 w q 9 w 9 w q 0 w 9 q q 9 w 9 w q 9 w 9 w q 9 w ",
"s k k 8 7 s k k 8 7 8 k s 8 7 a k k 8 7 8 k k 8 7 8 k k 8 7 8 k k 8 7 8 k k 8 7 a k k 8 7 8 k k 8 7 p k k 8 7 p k k 8 6 ",
"U U U U P U U U U P U U U U P U U U U P U U U U P U U U U P U U U U P U U U U P U U U U P U U U U P U U U U P U U U U P ",
"I I I I I I I I I I I I I I I I I I I I I I I I I I I I I I I I I I I I I I I I I I I I I I I I I I I I I I I I I I I I ",
"t t t t t t t t t t t t t t t t t t t t t t t t t t t t t t t t t t t t t t t t t t t t t t t t t t t t t t t t t t t t ",
"y y y y y y y y y y y y y y y y y y y y y y y y y y y y y y y y y y y y y y y y y y y y y y y y y y y y y y y y y y y y ",
"r k l r k r l l r k d k l d k r l l d k r k l r k d k l d k r l l d k r k l d k r l l l k d l l l k r l l r k r k l d k ",
"S Q ^ G W D ~ ^ H E D ~ ^ H E D Q ^ H E J ~ ^ G E D ~ ^ F E D Q ^ G W D ~ ^ G E G Q ^ H E G Q ^ H W J ~ ^ H E G Q ^ H Y ",
"v...| 7.%.q.[ | g.$.e.[ | h.' e...| 7.#.q.o.| 7.$.e...| h.' e...| 7.$.q.[ | 7.$.e...| h.' e...| 7.$.q.[ | 7.$.e...| 7.+.",
"> y.h.l.| z.s.g.l.L *.r.7.q.L l.f.h.l.| &.r.g.l.L l.s.g.q.L *.y.g.l.| z.s.7.l.L *.y.7.q.| l.f.g.l.| &.y.g.l.| l.f.g.l...",
". : b.b.n.b.n.b.b.x.& : b.b.n.b.n.n.b.K & - b.b.n.b.n.n.b.K * : n.x.c.b.n.n.b.K & > b.b.n.b.n.b.b.K & : n.b.n.b.n.b.b.n.",
"  , m.B.M.B.B.B.B.1 $ , m.B.M.B.M.M.B.1 & ; 3 M.m.B.B.M.B.1 & = B.B.M.B.M.B.B.3 & , 3 B.m.B.B.B.M.3 & , M.B.m.m.B.B.B.m.",
"  , 3 B.B.B.B.B.B.3 & , B.B.B.B.B.B.B.3 & , B.B.B.B.B.B.B.3 & , B.B.B.B.B.B.B.3 & , B.B.b.B.B.B.B.3 & , m.B.B.B.B.B.B.B.",
"  & = = = = = = = =   & = = = = = = = =   & = = = = = = = = . & = = = = = = = &   & = = = = = = = =   & = = = = = = = = ",
"& & & & & &   . & & & & & & & & .   & & & & & & & & . . & & & & & & & & . . & & & & & & & &   . & & & & & & & & . . & & ",
"3 3 3 3 3 3 & = 3 3 3 3 3 3 3 3 & & 3 3 3 3 3 3 3 1 & = 3 3 3 3 3 3 3 3 & & 3 3 3 3 3 3 3 3 & = 3 3 3 3 3 3 3 3 & & 3 3 ",
"B.B.B.B.B.3 & = 3 B.B.B.B.B.B.3 & = 3 B.B.B.B.B.B.3 & = 3 B.B.B.B.B.B.3 & = 3 B.B.B.B.B.B.3 & = 3 B.B.B.B.B.B.3 & = 3 B.",
"3 3 3 3 3 3 & = 3 3 3 B.3 3 3 3 & = 3 3 3 3 3 3 B.3 & = 3 3 3 3 3 3 B.3 & = 3 3 3 3 3 3 M.3 & = 3 3 3 3 B.B.B.3 & = 3 3 ",
"= = = = = = . & = = = = = = = = . & = = = = = = = = . & = = = = = = = = . & = = = = = = = = . & = = = = = = = = . & = = ",
"  & & & & & & & & &   & & & & & & & & &   . & & & & & & & &   & & & & & & & & &   & & & & & & & & &   . & & & & & & & & ",
"  = 3 3 3 3 3 3 3 1 & = 3 3 3 3 3 3 3 1 & = 3 3 3 3 3 3 3 1 & = 3 3 3 3 3 3 3 3 & = 3 3 3 3 3 3 3 1 . = 3 3 3 3 3 3 3 3 "
};