/* XPM */
static const char *cat[] = {
/* columns rows colors chars-per-pixel */
"60 60 192 2 ",
"   c #3B3732",
".  c #3D3934",
"X  c #423C36",
"o  c #443F39",
"O  c #46413B",
"+  c #4B443E",
"@  c #403E44",
"#  c #4E4740",
"$  c #4F4A43",
"%  c #454248",
"&  c #504741",
"*  c #524B44",
"=  c #584F46",
"-  c #585047",
";  c #5B534B",
":  c #545049",
">  c #454452",
",  c #5C5751",
"<  c #5C5851",
"1  c #60574C",
"2  c #63594F",
"3  c #665B50",
"4  c #695E53",
"5  c #655F59",
"6  c #6C6156",
"7  c #6D645B",
"8  c #656059",
"9  c #73645B",
"0  c #766A5D",
"q  c #796B5E",
"w  c #706557",
"e  c #484A65",
"r  c #464968",
"t  c #55546B",
"y  c #5B5D7E",
"u  c #746C65",
"i  c #7A6E61",
"p  c #7F7162",
"a  c #7D736B",
"s  c #7F7771",
"d  c #806C64",
"f  c #837364",
"g  c #877867",
"h  c #85786A",
"j  c #8C7C6C",
"k  c #86756B",
"l  c #837C74",
"z  c #8A7C76",
"x  c #937C73",
"c  c #9C7F77",
"v  c #8F806E",
"b  c #91806E",
"n  c #8B847C",
"m  c #8F8171",
"M  c #948473",
"N  c #9B8975",
"B  c #93877A",
"V  c #9D8C7A",
"C  c #97877A",
"Z  c #A08D79",
"A  c #A6867D",
"S  c #A5927D",
"D  c #4D5489",
"F  c #4E599E",
"G  c #4D5799",
"H  c #505A9C",
"J  c #515CA5",
"K  c #5963AC",
"L  c #6E71A7",
"P  c #7076B9",
"I  c #5967C3",
"U  c #6F78CA",
"Y  c #6A75CA",
"T  c #7C80C5",
"R  c #7E8EFF",
"E  c #9E9081",
"W  c #9D9389",
"Q  c #978E8C",
"!  c #A88C82",
"~  c #B38F89",
"^  c #B08B84",
"/  c #A59382",
"(  c #AB9583",
")  c #AF9A84",
"_  c #A7988B",
"`  c #B29D86",
"'  c #B39289",
"]  c #B5998C",
"[  c #A59D95",
"{  c #BF9E95",
"}  c #B5A18B",
"|  c #BCA58D",
" . c #BFA88F",
".. c #ACA49B",
"X. c #BDA993",
"o. c #B6A898",
"O. c #9B96BC",
"+. c #A299A9",
"@. c #BAAFA2",
"#. c #BAB0A6",
"$. c #BEB5AA",
"%. c #BFAFB3",
"&. c #C19B92",
"*. c #C3AC93",
"=. c #C4AE98",
"-. c #C5A196",
";. c #D3A79F",
":. c #C9B196",
">. c #CDB59B",
",. c #C7B29D",
"<. c #D1B79C",
"1. c #D2B99D",
"2. c #FF9DA0",
"3. c #DCADA6",
"4. c #CBB6AD",
"5. c #C3B9AE",
"6. c #C8B6A5",
"7. c #D6BDA1",
"8. c #D9BFA3",
"9. c #DBB3A8",
"0. c #C3B1B2",
"q. c #C6B8B1",
"w. c #FEA9A9",
"e. c #E5B5AD",
"r. c #FEB0AE",
"t. c #EBB8B1",
"y. c #F1BFB6",
"u. c #DCC2A5",
"i. c #D5C0AA",
"p. c #DDC4AA",
"a. c #DBC3B1",
"s. c #D3C6BA",
"d. c #D5C7B8",
"f. c #CBC0B5",
"g. c #E1C5A7",
"h. c #E2C7A9",
"j. c #E4C9AB",
"k. c #E8CEAF",
"l. c #EBD1AD",
"z. c #F1D7AF",
"x. c #E6CDB1",
"c. c #E8CFB1",
"v. c #E8C5B7",
"b. c #F1C2B7",
"n. c #F1C3BB",
"m. c #EBD2B5",
"M. c #ECD4BA",
"N. c #EDD9BF",
"B. c #E2D1BC",
"V. c #F4DBB7",
"C. c #FDE5B2",
"Z. c #8589C7",
"A. c #8E92CA",
"S. c #9292C2",
"D. c #B3AFDC",
"F. c #BFB9DA",
"G. c #8292FF",
"H. c #8B98FF",
"J. c #9CA4FA",
"K. c #ABAAE6",
"L. c #B4B1E4",
"P. c #A0A9FE",
"I. c #B5B9F7",
"U. c #D0BEC6",
"Y. c #C3BBD8",
"T. c #C7B9CB",
"R. c #D7CDC2",
"E. c #DED3C7",
"W. c #DCD0D4",
"Q. c #ECD9C3",
"!. c #E1D5CB",
"~. c #E6D8C9",
"^. c #F4DEC4",
"/. c #FDD5CC",
"(. c #EADED6",
"). c #FDDDD2",
"_. c #F6E2CD",
"`. c #EDE1D4",
"'. c #F4E4D2",
"]. c #FAE4D2",
"[. c #FBE9D4",
"{. c #FDECDD",
"}. c #F9E7DB",
"|. c #DFD9ED",
" X c #CDCCF4",
".X c #E5DFEF",
"XX c #EEE7EF",
"oX c #FBEEE1",
"OX c #F3EAE6",
"+X c #FEF2E4",
"@X c None",
"#X c black",
/* pixels */
"@X@X@X@X@X@X@X@X@X@X@X@X@X@X@X@X@X@X@X@X@X@X@X@X@X@X@X@X@X@X@X@X@X@X@X@X@X@X@X@X@X@X@X@X@X@X@X@X@X@X@X@X@X@X@X@X@X@X@X@X",
"@X@X@X@X@X@X@X@X@X@X@X@X@X@X@X@X@X@X@X@X@X@X@X@X@X@X@X@X@X@X@X@X@X@X@X@X@X@X@X@X@X@X@X@X@X@X@X@X@X@X@X@X@X@X@X@X@X@X@X@X",
"@X@X@X@X@X@X@X@X@X@X@X@X@X@X@X@X@X@X@X@X@X@X@X@X@X@X@X@X@X@X@X@X@X@X@X@X@X@X@X@X@X@X@X@X@X@X@X@X@X@X@X@X@X@X@X@X@X@X@X@X",
"@X@X@X@X@X@X@X@X@X@X@X@X@X@X@X@X@X@X@X@X@X@X@X@X@X@X@X@X@X@X@X@X@X@X@X@X@X@X@X@X@X@X@X@X@X@X@X@X@X@X@X@X@X@X@X@X@X@X@X@X",
"@X@X@X@X@X@X@X@X@X@X@X@X@X@X@X@X@X@X@X@X@X@X@X@X@X@X@X@X@X@X@X@X@X@X@X@X@X@X@X@X@X@X@X@X@X@X@X@X@X@X@X@X@X@X@X@X@X@X@X@X",
"@X@X@X@X@X@X@X@X@X@X@X@X@X@X@X@X@X@X@X@X@X@X@X@X@X@X@X@X@X@X@X@X@X@X@X@X@X@X@X@X@X@X@X@X@X@X@X@X@X@X@X@X@X@X@X@X@X@X@X@X",
"@X@X@X@X@X@X@X@X@X@X@X@X@X@X@X@X@X@X@X@X@X@X@X@X@X@X@X@X@X@X@X@X@X@X@X@X@X@X@X@X@X@X@X@X@X@X@X@X@X@X@X@X@X@X@X@X@X@X@X@X",
"@X@X@X@X@X@X@X@X@X@X@X@X@X@X@X@X@X@X@X@X@X@X@X@X@X@X@X@X@X@X@X@X@X@X@X@X@X@X@X@X@X@X@X@X@X@X@X@X@X@X@X@X@X@X@X@X@X@X@X@X",
"@X@X@X@X@X@X@X@X@X@X@X@X@X@X@X@X@X@X@X@X@X@X@X@X@X@X@X@X@X@X@X@X@X@X@X@X@X@X@X@X@X@X@X@X@X@X@X@X@X@X@X@X@X@X@X@X@X@X@X@X",
"@X@X@X@X@X@X@X@X@X@X@X@X@X@X@X@X@X@X@X@X@X@X@X@X@X@X@X@X@X@X@X@X@X@X@X@X@X@X@X@X@X@X@X@X@X@X@X@X@X@X@X@X@X@X@X@X@X@X@X@X",
"@X@X@X@X@X@X@X@X@X@X@X@X@X@X@X@X@X@X@X@X@X@X@X@X@X@X@X@X@X@X@X@X@X@X@X@X@X@X@X@X@X@X@X@X@X@X@X@X@X@X@X@X@X@X@X@X@X@X@X@X",
"@X@X@X@X@X@X@X@X@X@X@X@X@X@X@X@X@X@X@X@X@X@X@X@X@X@X@X@X@X@X@X@X@X@X@X@X@X@X@X@X@X@X@X@X@X@X@X@X@X@X@X@X@X@X@X@X@X@X@X@X",
"@X@X@X@X@X@X@X@X@X@X@X@X@X@X@X@X@X@X@X@X@X@X@X@X@X@X@X@X@X@X@X@X@X@X@X@X@X@X@X@X@X@X@X@X@X@X@X@X@X@X@X@X@X@X@X@X@X@X@X@X",
"@X@X@X@X@X@X@X@X@X@X@X@X@X@X@X@X@X@X@X@X@X@X@X@X@X@X@X@X@X@X@X@X@X@X@X@X@X@X@X@X@X@X@X@X@X@X@X@X@X@X@X@X@X@X@X@X@X@X@X@X",
"@X@X@X@X@X@X@X@X@X@X@X@X@X@X@X@X@X@X@X@X@X@X@X@X@X@X@X@X@X@X@X@X@X@X@X@X@X@X@X@X@X@X@X@X@X@X@X@X@X@X@X@X@X@X@X@X@X@X@X@X",
"@X@X@X@X@X@X@X@X@X@X@X@X@X@X@X@X@X@X@X@X@X@X@X@X@X@X@X@X@X@X@X@X@X@X@X@X@X@X@X@X@X@X@X@X@X@X@X@X@X@X@X@X@X@X@X@X@X@X@X@X",
"@X@X@X@X@X@X@X@X@X@X@X@X@X@X@X@X@X@X@X@X@X@X@X@X@X@X@X@X@X* # # & # * @X@X@X@X@X@X@X& & # # * @X@X@X@X@X@X@X@X@X@X@X@X@X",
"@X@X@X@X@X@X@X@X@X@X@X@X@X@X@X@X@X@X@X@X@X@X@X@X@X@X@X@X; x ' ~ ' ( k * @X@X@X@X@X9 ! ' ~ ' ( i @X@X@X@X@X@X@X@X@X@X@X@X",
"@X@X@X@X@X@X@X@X@X@X@X@X= = ; @X@X@X@X@X@X@X@X@X@X@X@X@X; { n.e.t.n.! +   @X@X@X. 9 9.b.e.y.b.x X @X@X@X@X@X@X@X@X@X@X@X",
"@X@X@X@X@X@X@X@X@X@X@XX 6 V f + @X@X@X@X@X@X@X@X@X@X@X@X; &.3.c ! t.^ +   @X@X@X. 9 3.;.x -.b.x X @X@X@X@X@X@X@X@X@X@X@X",
"@X@X@X@X@X@X@X@X@X@X@X. i 6.E # @X@X@X@X@X@X@X@X@X@X@X@X* A ^ d j &.A 6 ; @X@X@X2 f ' ! q C -.q X @X@X@X@X@X@X@X@X@X@X@X",
"@X@X@X@X@X@X@X@X@X@X@XX l E...$ @X@X@X@X@X@X@X@X@X@X@X@XX = i ) / q j ) p o   ; V Z i k ( M 4 + . @X@X@X@X@X@X@X@X@X@X@X",
"@X@X@X@X@X@X@X@X@X@X@X. l !...$ @X@X@X@X@X@X@X@X@X@X@X@Xo 2 M >.*.j S >.S q 0 h *.*.j Z <.) w * . @X@X@X@X@X@X@X@X@X@X@X",
"@X@X@X@X@X@X@X@X@X@X@XO l d.[ $ @X@X@X@X@X@X@X@X@X@X@X@X; / i.p.u.1.7.u.7.>.>.1.u.u.1.1.u.8.*.0 . @X@X@X@X@X@X@X@X@X@X@X",
"@X@X@X@X@X@X@X@X@X@X7 n $.(.[ $ @X@X@X@X@X@X@X@X@X@X@X0 M >.x.j.h.j.j.h.j.j.j.j.h.h.j.h.h.j.1.f . @X@X@X@X@X@X@X@X@X@X@X",
"@X@X@X@X@X@X@X@X@X+ a R.+XOX..$ @X@X@X@X@X@X@X@X@X@X* V i.j.h.h.h.h.h.h.p.a.j.h.h.h.h.h.h.p.4.h + @X@X@X@X@X@X@X@X@X@X@X",
"@X@X@X@X@X@X@X@X; m o.^.!.[ l @X@X@X@X@X@X@X@X@X@X@X* V h.j.h.h.h.h.h.a.Y.L.U.h.h.h.h.h.p.T.K.+.j 2 @X@X@X@X@X@X@X@X@X@X",
"@X@X@X@X@X@X@X  ; X.M.c.} < @X@X@X@X@X@X@X@X@X@X@X@X$ N u.h.h.h.h.h.h.a.K.H.Y.c.x.x.x.x.B.L.G.D.X.6   @X@X@X@X@X@X@X@X@X",
"@X@X@X@X@X@X@X  ; | 7.V i @X@X@X@X@X@X@X@X@X@X@X@X@X# M <.7.8.p.h.h.h.a.K.G. X'.'.'.'.'.(.I.R L.=.6   @X@X@X@X@X@X@X@X@X",
"@X@X@X@X@X@X@X  ; } | 2 . @X@X@X@X@X@X@X@X@X@X@X@X@XO f ) ` ` | >.u.h.a.L.P.|.+X+X}./.).OX XJ.F.=.6   @X@X@X@X@X@X@X@X@X",
"@X@X@X@X@X@X@X  - ` } 1 . @X@X@X@X@X@X@X@X@X@X@X@X@XX * 1 2 2 4 j >.h.j.W..XOX+X+X/.2.r.}.XX|.!.=.6   @X@X@X@X@X@X@X@X@X",
"@X@X@X@X@X@X@X  - ) *.f 3 @X@X@X@X@X@X@X@X@X@X@X@X@X    X = 3 4 b >.h.j.Q.[.oX+X+X/.w.r.}.{.].N.>.7 . @X@X@X@X@X@X@X@X@X",
"@X@X@X@X@X@X@X  = ) 1.*.M = @X@X@X@X@X@X@X@X@X@X@X@X@X. * j ` ` *.7.h.h.j.M.].+XoX{.).].{._.m.x.>.7 . @X@X@X@X@X@X@X@X@X",
"@X@X@X@X@X@X@X  - ) u.u.| j w @X@X@X@X@X@X@X@X@X@X@X@Xe t k M M N Z | 7.u.j.N._._._._.'._.M.u.*.V 6 @X@X@X@X@X@X@X@X@X@X",
"@X@X@X@X@X@X@X  - ) u.h.u.7.C * o o o o o o o o o o % D J t $ $ * ; j >.u.h.j.k.x.x.x.x.j.h.>.h = @X@X@X@X@X@X@X@X@X@X@X",
"@X@X@X@X@X@X@X  = ( u.j.k.j.| M h j j j j j h j j j z L I G r @ * q S >.u.h.j.j.j.j.j.j.u.| j 6 @X@X@X@X@X@X@X@X@X@X@X@X",
"@X@X@X@X@X@X@X  = Z 1.j.x.j.u.1.1.7.7.7.7.7.7.8.7.7.6.O.Y I J e 5 S | *.:.1.1.<.1.1.<.1.:.v * @X@X@X@X@X@X@X@X@X@X@X@X@X",
"@X@X@X@X@X@X@X@X- w N >.x.x.j.g.g.h.j.h.h.h.j.h.h.j.i.%.O.U I H y u q q q p p f f p f f i 6 @X@X@X@X@X@X@X@X@X@X@X@X@X@X",
"@X@X@X@X@X@X@X@X@XX 4 | j.m.k.j.h.h.h.h.h.h.h.h.h.h.h.p.4.S.Y I J e > > > > > > > > > % o @X@X@X@X@X@X@X@X@X@X@X@X@X@X@X",
"@X@X@X@X@X@X@X@X@X  3 } j.m.x.j.h.h.h.h.h.h.h.h.h.h.h.h.i.0.O.U I J H F F F F F F F F D @X@X@X@X@X@X@X@X@X@X@X@X@X@X@X@X",
"@X@X@X@X@X@X@X@X@X@X1 N } X.>.u.h.h.h.h.h.h.h.h.h.h.h.h.h.p.0.S.T T T T Z.A.Z.T T P K J @X@X@X@X@X@X@X@X@X@X@X@X@X@X@X@X",
"@X@X@X@X@X@X@X@X@X@X@X; 1 4 V 1.h.h.h.h.h.h.h.h.h.h.h.h.h.h.i.4.0.0.0.4.B.N.d.0.0.Q t > @X@X@X@X@X@X@X@X@X@X@X@X@X@X@X@X",
"@X@X@X@X@X@X@X@X@X@X@X@X. X g 1.h.h.h.h.h.h.h.h.h.h.h.h.h.h.h.h.h.h.h.j.V.C.z.h.h.) ;   @X@X@X@X@X@X@X@X@X@X@X@X@X@X@X@X",
"@X@X@X@X@X@X@X@X@X@X@X@X  X g 1.h.h.h.h.h.h.h.h.h.h.h.h.h.h.h.h.h.h.h.j.k.l.j.j.h.` ;   @X@X@X@X@X@X@X@X@X@X@X@X@X@X@X@X",
"@X@X@X@X@X@X@X@X@X@X@X@X@Xo g <.h.h.h.h.h.h.h.h.h.h.h.h.h.h.h.h.h.h.h.h.h.h.h.h.h.` ;   @X@X@X@X@X@X@X@X@X@X@X@X@X@X@X@X",
"@X@X@X@X@X@X@X@X@X@X@X@X@Xo g 1.h.h.h.h.h.h.h.j.j.h.h.h.h.h.h.h.h.h.h.h.h.h.h.u.8.( ;   @X@X@X@X@X@X@X@X@X@X@X@X@X@X@X@X",
"@X@X@X@X@X@X@X@X@X@X@X@X@Xo g 1.j.h.h.h.h.j.k.c.k.j.h.h.h.h.h.h.h.h.h.h.h.h.h.>.V q ; @X@X@X@X@X@X@X@X@X@X@X@X@X@X@X@X@X",
"@X@X@X@X@X@X@X@X@X@X@X@X@Xo h 7.j.h.h.u.7.u.c.M.m.c.h.u.1.u.j.j.u.1.8.h.j.j.j.*.6 o @X@X@X@X@X@X@X@X@X@X@X@X@X@X@X@X@X@X",
"@X@X@X@X@X@X@X@X@X@X@X@X@Xo M a.m.h.h.>.( } x.^.M.M.x.o./ >.c.m.7./ } j.m.M.M.,.6   @X@X@X@X@X@X@X@X@X@X@X@X@X@X@X@X@X@X",
"@X@X@X@X@X@X@X@X@X@X@X@X@Xo B ~._.M.k.=.h B B.[._.^.x.E h 6.^._.6.h / M._.].].i.7   @X@X@X@X@X@X@X@X@X@X@X@X@X@X@X@X@X@X",
"@X@X@X@X@X@X@X@X@X@X@X@X@Xo W '.+X[.N.*.p B ~.+X{._.u.M a s.{.{.f.a _ '.+XoX+XE.u   @X@X@X@X@X@X@X@X@X@X@X@X@X@X@X@X@X@X",
"@X@X@X@X@X@X@X@X@X@X@X@X@XO _ oX+XoXa.V 6 n `.+X+XQ.) 0 u R.+X+Xs.u n s.}.+X+X!.u   @X@X@X@X@X@X@X@X@X@X@X@X@X@X@X@X@X@X",
"@X@X@X@X@X@X@X@X@X@X@X@X@XO W }.+X'.W ; + l ~.+X{.@.6 + 8 s.+X+Xf.5 * u 5.oX+X!.u   @X@X@X@X@X@X@X@X@X@X@X@X@X@X@X@X@X@X",
"@X@X@X@X@X@X@X@X@X@X@X@X@X@Xl #.5...7 . . u ..5.#.s O   , [ 5.$.Q *   # n $.5...u @X@X@X@X@X@X@X@X@X@X@X@X@X@X@X@X@X@X@X",
"@X@X@X@X@X@X@X@X@X@X@X@X@X@X@X, ; : O   @X@X; ; ; + . @X@X, ; ; $ X   @X< ; ; < @X@X@X@X@X@X@X@X@X@X@X@X@X@X@X@X@X@X@X@X",
"@X@X@X@X@X@X@X@X@X@X@X@X@X@X@X@X      @X@X@X@X      @X@X@X@X      . @X@X@X    @X@X@X@X@X@X@X@X@X@X@X@X@X@X@X@X@X@X@X@X@X",
"@X@X@X@X@X@X@X@X@X@X@X@X@X@X@X@X@X@X@X@X@X@X@X@X@X@X@X@X@X@X@X@X@X@X@X@X@X@X@X@X@X@X@X@X@X@X@X@X@X@X@X@X@X@X@X@X@X@X@X@X",
"@X@X@X@X@X@X@X@X@X@X@X@X@X@X@X@X@X@X@X@X@X@X@X@X@X@X@X@X@X@X@X@X@X@X@X@X@X@X@X@X@X@X@X@X@X@X@X@X@X@X@X@X@X@X@X@X@X@X@X@X",
"@X@X@X@X@X@X@X@X@X@X@X@X@X@X@X@X@X@X@X@X@X@X@X@X@X@X@X@X@X@X@X@X@X@X@X@X@X@X@X@X@X@X@X@X@X@X@X@X@X@X@X@X@X@X@X@X@X@X@X@X",
"@X@X@X@X@X@X@X@X@X@X@X@X@X@X@X@X@X@X@X@X@X@X@X@X@X@X@X@X@X@X@X@X@X@X@X@X@X@X@X@X@X@X@X@X@X@X@X@X@X@X@X@X@X@X@X@X@X@X@X@X"
};