/* XPM */
static char *out[] = {
/* columns rows colors chars-per-pixel */
"100 100 81 1 ",
"  c None",
". c #3B3733",
"X c #3D3934",
"o c #423E36",
"O c #443F38",
"+ c #47413A",
"@ c #49433B",
"# c #4F483E",
"$ c #50473C",
"% c #544A3E",
"& c #594E3F",
"* c #554D43",
"= c #5A4F40",
"- c #5C5244",
"; c #5C544A",
": c #625645",
"> c #655847",
", c #635748",
"< c #655A4B",
"1 c #6A5D4C",
"2 c #645C50",
"3 c #6E604E",
"4 c #70634F",
"5 c #6E6250",
"6 c #6F6759",
"7 c #726653",
"8 c #746855",
"9 c #7C6D57",
"0 c #706658",
"q c #756A5B",
"w c #7A6E5D",
"e c #7D705D",
"r c #7A6F60",
"t c #7B7061",
"y c #84745D",
"u c #88775F",
"i c #87785F",
"p c #857661",
"a c #8E7C63",
"s c #867968",
"d c #8C7F6C",
"f c #907D63",
"g c #8E816C",
"h c #938166",
"j c #94856F",
"k c #98866A",
"l c #9C8A6C",
"z c #8E8270",
"x c #958671",
"c c #968874",
"v c #9D8D74",
"b c #9C8E78",
"n c #9D907B",
"m c #A18D6F",
"M c #A28E70",
"N c #A49173",
"B c #AD9877",
"V c #A4957D",
"C c #A8977F",
"Z c #AE9979",
"A c #B19C7B",
"S c #B5A07F",
"D c #BBA47E",
"F c #A69781",
"G c #A79882",
"H c #AB9C84",
"J c #B39F81",
"K c #B6A285",
"L c #BBA582",
"P c #BEA886",
"I c #B3A38B",
"U c #B9A78B",
"Y c #BDA98B",
"T c #BCAB91",
"R c #C1AC8C",
"E c #C2AF91",
"W c #C5B294",
"Q c #C8B597",
"! c #C7B59A",
"~ c #C8B69A",
"^ c #CBB99D",
/* pixels */
"                                                                                                    ",
"  @tI^^^Ex5=-=========================eG^^^^c5.     @tH^^^Tx7=====:==============================   ",
" .@rH^^^Tj5&&=&&%=&&=&&&&&==&&&&=&&&&&eC^^^^c2..   .@rH^^^Tj5&&&&&&&===&&&==&&&&=&&&&&==&&&&=&&&&=  ",
" .@rH^^^Tj5&&&&&&&&&=&&&&&&&&&&&=&&&&=eC^^^!c2..   .@tF^^^Tx5&&&&&&&=====&&&&&&&=&&&&=&&&&&&&&&&&=  ",
" .@rH^^^Tj5&&&&&&&&&&&=&&&&&&&&&&&&&&&eC^^^!c5..   .@tF^^^Tj5&&&&&&&&&&&&&&&&&&&&&&&&&&&&&&&&&&&&&  ",
" .@rH^^^Tj5&&&&&&&&&&&&&&&&&&&&&&&&&&&eC^^^^c;..   .@tF^^^Tj5&&&&&&&&&&&&&&&&&&&&&&&&&&&&&&&&&&&&&  ",
" .@rH^^^Tj5&&&&&&&&&&&&&&&&=&&&&&&&&&&eC^^^^c2..   .+rF^^^Tj5&&&&&&&&&&&&&&&&&&&&&&&&&&&&&&&&&&&&&  ",
" .@rH^^^Tj5&&&&&&&&&&&&&&&&&&&&&&&&&&&eC^^^Tc2..   .@tF^^^Tj5&&&&&&&&&&&&&&&&&&&&&&&&&&&&&&&&&&&&&  ",
" .@rH^^^Tj5&&&&&&&&&&&&&&&&&&&&&&&&=&&eC^^^!c2..   .@rG^^^Tj5&&&&&&&&&&&&&&&&&&&&&&&&&&&&&&&&&&&&&  ",
" .@rH^^^Tj5&&&&&&&&&&&&&&&&&&&&&&&&&&&eF^^^!c2..   .@rG^^^Tx5&&&&&&&&&&&&&&&&%&&&&&&&&&&&&&&&&&&&-  ",
" .@tH^^^Tx5=&&&&&&&&&&&&&&&&&&&&&&&&&&eC^^^^c2..   .@rG^^^Tj5&&&&&&&&&&&&&&&&&&&&&&&&&&&&&&&&&&&&&  ",
" .+eH^~^Yx1=&&&&&&&&&&&&&&&&&&&&&&&&&&eC^^^!c5o+   .@rF^^^Tj3&&&&&&&&&&&&&&&&&&&&&&&&&&&&&&&&&&&&&  ",
" .@qVRWRKg1&&&&&&&&&&&&&&&&&&&&&&&&&&&eF^^^~Hgqq   .+rF^^^Tj5&&&&&&&&&&&&&&&&&&&&&&=&&&&&&&&&&&&&&  ",
" .+8NPPPAa1&&&&&=%&&&&&&&&&&&&&&&&&&&&wF^^^^THFG   .@rG^^^Tx5&&&&&&&&&&&&&&&&&&&&&&&&&&&&&&&&*&&&&  ",
" .O5kAZZNy1&&&&&&&&&&&&&&&&&&&&&&&&&&&wF!Q^^^^^^   .@rF~!!Yj3&&&&&&&&&&&&&&&&&&&&&&&&&&&&&&&&&&&&&  ",
" .o-8yuyy4-&&&&&&&&&&&&&&&&&&&&&&&&&&&9MEWQ^^^^^   .@qNREEKg3&&&&&&&&&&&&&&&&&&&&&&&&&&&&&&&&&&&&-  ",
" .X@**;--==&&&&&&&&&&&&&&&&&&&&&&&&&&&9lPRQ^^^^^   .+8vPPPAa3&&&&&&&&&&&&&&&&&&&&&&&&=&&&&&&&&&&&&  ",
" ..XO@+@@$&&&&&&&&&&&&&&&&&&&&&&&&&&&&4hASE~^Q^Q   .O5fAZZNy>&&&&&&&&&&&&&&&&&&&&&&&&&&&&&&&&&&&&&  ",
" .o*6rrr02-&&&=&&&&&&&&&&&&&&&&&&&&&&&>yhlSEEREE   .X*5wye93:&&&&&&&&&&&&&&&&&&&&&&&&&&&&&&&&&&&&&  ",
" .O5zHGGVp<&&&&&&&&&&&&&&&&&&&&&&&&&&&:>3iNPLPPL   ..O**==**&&&&&&&&&&&&&&&&&&&&&&&&&&&&&&&&&&&&&&  ",
" .@rH^^^Tj5&&&&&&&&&&&&&&&*&&&&&&&&&&&&&&7hBZBBB   .XOO**@#%&&&&&&&&&&&&&&&&&&&&&&&&&&&&&&&&&&&&&&  ",
" .@rH^^^Tj5&&&&&*&&&&&&&&&&&&&&&&&&&&&&&&19fafff   .X*6rqrq2-&&&&&&&&&&&&&&&&&&&&&&&&&&&&&&&&&&&&-  ",
" .@rH^^^Tx1&&&&&&&&&&&&&&&&&&&&&&&&&&&&&&:>43333   .+6dGGGNs<&&&&&&&&&&&&&&&&&&&&&&&&&&&&&&&&&&&&&  ",
" .@tH^^^Tx5&&&&&&&&&&&&&&&&&&&&&&&&&&&&&&&&&&&&&   .@tG^^^Tj3&&&&&&&&&&&&&&&&&&&&&&&&&&&&&&&&&&&&&  ",
" .@rI^^^Tx5&&=&&&&&&&&&&&&&&&&&&&&&&&&&&&&&&&&&-   .@rG^^^Tj5&&&&&&&&&&&&&&&&&&&&&&&&&&&&&&&&&&&&&  ",
" .@rH^^^Tx5&&&&&&&&&&&&&&&&&&&&&&&&&&&&&&&&&&&&&   .@rG^^^Tx5&&&&&&&&&&&&&&&&&&&&&&&&&&&&&&&&&&&&&  ",
" .@rH^^^Tj5&&&&&&&&&&&&&&&&&&&&&&&&&&&&&&&&&&&&&   .@rG^^^Tx5&&&&&&&&&&&&&&&&&&&&&&&&&&&&&&&&&&&&&  ",
" .@rH^^^Tj5&&&&&&&&&&&&&&&&&&&&&&&&&&&&&&&&&&&&-   .@rF^^^Tx5&&&&&&&&&&&&&&&&&&&&&&&&&&&&&&&&&&&&-  ",
" .@rH^^^Tj5&&&&&&&&&&&&&&&&&&&&&&&&&&&&&&&&&&&&&   .@rF^^^Tj5&&&&&&&&&&&&&&&&&&&&&&&&&&&&&&&&&&&&&  ",
" .@rH^^^Tj5&&&&&&&&&&&&&&&&&&&&&&&&&&&&&&&&&&&&&   .@rF^^^Tj5&&&&&&&&&&&&&&&&&&&&&&&&&&&&&&&&&&&&&  ",
" .@rH^^^Tj5&&&&&&&&&&&&&&&&&&&&&&&&&&&&&&&&&&&&&   .@rF^^^Tj5&&&&&&&&&&&&&&&&&&&&&&&&&&&&&&&&&&&&&  ",
" .@rH^^^Tj5&&&&&&&&&&&&&&&&&&&&&&&&&&&&&&&&&&&--   .@rF^^^Tx3&&&&&&&&&&&&&&&&&&&&&&&&&&&&&&&&&&&&&  ",
" .@rJ^^^Ex3=&&&&&&&&&&&&&&&&&&&&&&&&&&&&&&&&&&&&   o@rF^^^Tj5&&&&&&&&&&&&&=&&&&&&&&&&&&&&&&&&&&&&&  ",
" o@rH^^^Rd3=&&&&&&&&&&&&&&&&&&&&&&&&&&&&&&&&&&&=   .@rF^^^Tj5&&&&&&&&&&&&&&&&&&&&&&&&&&&&&&&&&&&&-  ",
" X@rH^^^Td4=&&&&&&&&&&&&&&&&&&&&&&&&&&&&&&&&&&&=   .@rG^^^Tx5&&&&&&&&&&&&&&&&&&&&=&&&&&&&&&&&&&&&&  ",
" XOwGWQQRd1&&&=&&&&&&&&&&&&&&&&&&&&&&&&&&&&&&&&=   .@rG^^^Tx3&&&&&&&&&&&&&&&&&&&&&&&&&&&&&&&&&&&&&  ",
" .+qNRRRJf3=&&&&&&&&&&&&&&&&&&&&&&&&&&&&&&&&&&&=   .@rG^^^Tj5&&&&&&&&&&&&&&&&&&&&&&&&&&&&&&&&&&&&&  ",
" .O0MJRAJp1=&&&&&&&&&&&&&&&&&&&&&&&&&&&&&&&&&&&=   .@rF^^^Tx5&&&&&&&&&&&&&&&&&&&&&&&&&&&&&&&&&&&&&  ",
" .O1pmkmfy,=&&&&&&&&&&&&&&=&&&&&&&&&&&&&&&&&&&==   .@wVWWWUh3&&&&&&&&&&&&&&&&&&&&&&&&&&&&&&&&&&&&&  ",
" .X%,7743,==&&&&&=&&&&&&&&&&&&&&&&&&&&&&&&&=&&==   .@8vRRRJd1&&&&&&&&&=&&&&&&&&&&&&&&&&&&&&&&&&&&-  ",
" ..XOOOOOO====&&&&&&&&&&&&&&&&&&&&&&&&&&&&&&&&==   .O0lLDLZu3&&&&&&&&&&&&&&&&&&&&&&&&&&&&&&&&&&&&&  ",
" .X@*;;;;===&&&&&&&&&&&&&&&&&&&&&&&&&&&&&&&&&&==   .O<ylllh9>&&&&&&&&&&&&&&&&&&&&&&&&&&&&&&&&&&&&&  ",
" .o;tzggd0:=&&&&&&&&&&&&&&&&&&&&&&&&&&&&&&&&&&&=   .o$20773>&&&&&&&&&&&&&&&&&&&&&&&&&&&&&=&&&&&&&&  ",
" .+qFETTHd1=&&&&&&&&&&&&&&&&=&&&&&&&&&&&&&&&&&==   ..XXOoO+@&&&&&&&&&&&&&&&&&&&&&&&=&&&&&&&&&&&&&&  ",
" .@rH^^^Ed7=&&&&&&&&&&&&&&&&&&&&&&&&&&&&&&&&&&&=   .X**;2;,-&&&&&&&&&&&&&&&&&&&&&&&&&&&&&&&&&&&&&&  ",
" .@rH^^^Ex5=&&&&&&&&&&&&&&&&&&&&&&&&&&&&&&&&&&&=   .O;rzzxdq>&&&&&&&&&&&&&&&&&&&&&&&&&&&&&&&&&&&&-  ",
" .OrH^^^Ed4&&&&&&&&&&&&&&&&&&&&&&&&&&&&&&&&&&&&=   .XrF!!TUg3&&&&&&&&&&&&=&&&&&=&&&&&&&&&&&&&&&&&&  ",
" .*tH^^^Ed4&&&&&=&&&&&&&&&&&&&==&&&&&&&&&&&&&&&    .*rF^^^Tx5&&&&&&&&&&&&&&&&&&=&&&&&&&&&&&&===&&   ",
"                                                                                                    ",
"                                                                                                    ",
"                                                                                                    ",
"  @tI^^^Tx7==============-*============&--&&--&     @tH^^^Tx7==-=========-*==================-&-&   ",
" .@rH^^^Tx3&=&&&&&&&&&&&=&&&&&&&=&&&&&&&&&&&&&&&   .@rG^^^Tj3&&&&&&&&&&&=&&&&&&&=&&&&&&&=&&&&&&&&-  ",
" .@rH^^^Tj5&&&&&&&&&&&&&&&&&&&&&=&&&&&&&&&&&&&&&   .@rG^^^Tj5&&&&&&&&&&&&&&&&&&&==&&&&&&&&&&&&&&&&  ",
" .@rH^^^Tj5&&&&&&&&&&&&&&&&&&&&&&&&&&&&&&&&&&&&&   .@rF^^^Tj5&&&&&&&&&&&&&&&&&&&&&&&&&&&&&&&&&&&&&  ",
" .@rH^^^Tj5=&&&&&&&&&&&&&&&&&&&&&&&&&&&&&&&&&&&-   .@rF^^^Tx3&&&&&&&&&&&&&&&&&&&&&&&&&&&&&&&&&&&&&  ",
" .@rH^^^Tj5&&&&&&&&&&&&&&&&&&&&&&&&&&&=&&&&&&&&&   .@tF^^^Tj5&&&&&&&&&&&&&&&&&&&&&&&&&&&&&&&&&&&&&  ",
" .@rH^^^Tj5&&&&&&&&&&&&&&&&&&*&&&&&&&&&&&&&&&&&&   .@tG^^^Tj5&&&&&&&&&&&&&&&&&&&&&&&&&&&&&&&&&&&&-  ",
" .OrH^^^Tj5&&&&&&&&&&&&&&&&&&&&&&&&&&&&&&&&&&&&&   .@tF^^^Tj5&&&&&&&&&&&&&&&&&&&&&&&&=&&&&&&&&&&&&  ",
" .*tH^^^Tj5&&&&&&&&&&&&&&&&&&&&&&&&&&&&&&&&&&&&-   .@rF^^^Tj5&&&&&&&&&&&&&&*&&&&&&&&&&&&&&&&&&&&&&  ",
" .@rH^^^Tj5&&&&&&&&&&&&&&&&&&&&&&&&&&&&&&&&&&&&&   .@tF^^^Tj5&&&&&&&&&&&&&&&&&&&&&&&&&&&&&&&&&&&&&  ",
" X*tH^^^Tj5&&&&&&&&&&&&&&&&&&&&&&&&&&&&&&&&&&&&&   .+rF^^^Yj5&&&&&&&&&&&&&&&&&&&&&&&&&&&&&&&&&&&&&  ",
" 6rxU^^^Tj5&&&&&&&&&&&&&&&&&&&&&&&&&&&&&&&&&&&&-   .+qNEEEUg3&&&&&&&&&&&&&&&&&&&&&&&&&&&&&&&&&&&&&  ",
" FGHE^^^Tj5&&&&&&&&&&&&&&&&&&&&&&&&&&&&&&&&&&&==   .+qvPPPAa1&&&&&&&&&&&&&&&&&&&&&&&&&&&&&&&&&&&&-  ",
" ^^^^^~^Yx3==&&&&&&&&&&&&&&&&&&&&&&&&&&&&&&&&&&-   .@5kAAANu>&&&&&&&&&&&&&&&&&&&&&&&&&&&&&&&&&&&&&  ",
" ^^^^^!EKf1=&&&&&&&&&&&&&&&&&&&&&&&&&&&&&&&&&&&&   .X-7ippy4:&&&&&&&&&&&&&&&&&&&&&&&&&&&&&&&&&&&&&  ",
" ^^^^~EYAf3&&&&&&&&&&&&&&&&&&&&&&&&&&&&&&&&&&&&&   ..@*-----&&&&&&&&&&&&&&&&&&&&&&&&&&&&&&&&&&&&&&  ",
" ^~~~WYSNy1&&&&&&&&&&&&&&&&&=&&&&&&&&&&&&&&&&&&&   X.X++++@#&&&&&&&&&&&&&&&&&&&&&&&&&&&&&&&&&&&&&-  ",
" RRREYZlu8>&&&&&&&&&&&&&&&&&&&&&&&&&&&&&&&&&&&&-   .X*26qq6<-&&&&&&&&&&&&&&=&&&&&&&&&&&&&&&&&&&&&&  ",
" RRRRAl93>&&&&&&&&&&&&&&&&&&&&&&&&&&&&&&&&&&&&&&   .+5zFFFbt<&&&&&&&&&&&&&&&&&&&&&&&=&&&&&&&&&&*&&  ",
" AZZAmy1&&&&&&&&&&&=&&&&&&&&&&&&&&&&&&&&&&&&&&-&   .@rF^^^Tj5&&&&&&&&&&&&&&&&&&&&&&&&&&&&&&&&&&&&&  ",
" ffffu7:&&&&&&&&&&&&&&&&&&&&&&&&&&&&&&&&&&&&&&&&   .@rF^^^Tj5&&&&&&&&&&&&&&&&&&&&&&&&&&&&&&&&&&&&-  ",
" 43341>=&&&&&&&&&&%=&&&&&&&&&&&&&&&&&&&&&&&&&&&-   .@rF^^^Tx3=&&&&&&&&&&&&&&&&&&&&&&&&&&&&&&&&&&&&  ",
" &&&&&&&&&&&&&&&&&&&&&&&&&&&&&&&&&&&&&&&&&&&&&&&   .@rF^^^Tz5&&&&&&&&&&&&&&&&&&&&&&&&&&&&&&&&&&&&&  ",
" &&&&&&&&&&&&&&&&=&&&&&&&&&&&&&&&&&&&&&&&&&&&&&&   .@rG^^^Tx5&&&&&&&&&&&&&&&&&&&&&&&&&&&&&&&&&&&&&  ",
" &&&&&&&&&&&&&&&&&&&&&&&&&&&&&&&&&&&&&&&&&&&&&&&   .@rG^^^Tx5&&&&&&&&&&&&&&&&&&&&&&&&&&&&&&&&&&&&-  ",
" &&&&&&&&&&&&&&&&&&&&&&&&&&&&&&&&&&&&&&&&&&&&&&&   X@tG^^^Tj5&=&&&&&&&&&&&&&&&&&&&&&&&&&&&&&&&&&&&  ",
" &&&&&&&&&&&&&&&&&&&&&&&&&&&&=&&&&&&&&&&&&&&&&&-   .@tG^^^Tj5&&&&&&&&&&&&&&&&&&&&&&&&&&&&&&&&&&&&&  ",
" &&&&&&&&&&&&&&&&&&&&&&&&&&&&&&&&&&&&&&&&&&&&&&&   .@rF^^^Tx3&&&&&&&&&&&&&&&&&&&&&&&&&&&&&&&&&&&&&  ",
" &&&&&&&&&&&&&&&&&&&&&&&&&&&&&&&&&&&&&&&&&&&&&&&   .@rG^^^Tj5&&&&&&&&&&&&&&&&&&&&&&&&&&&&&&&&&&&&-  ",
" &&&%=&&&&&&&&=&&&&&&&&&&&&&&&&&&&&=&&&&&&&&&&&&   .@rF^^^Tj3&&&&&&&&&&&&&&&&&&&&&&&&&&&&&&&&&&&&&  ",
" &&&&&&&&&&&&&&&&&&&=&&&&&&&&&&&&&&&&&&&&&&&&&&-   .@tF^^^Tj5&&&&&&&&&&&&&&&&&&&&&*&&&&&&&&&&&&&&&  ",
" &&&&&&&&&&&&&&&&&&&&&&%&&&&&&&&&&&&&&&&&&&&&&&=   .@rF^^^Tj5&&&&&&&&&&&%=&&&&&&&&&&&&&&&&&&&&&&&&  ",
" &=&&&&&&&&&&&&&&&&&&&&=&&&&&&&&&&&&&&&&&&&&&&&&   .@rF^^^Tx3&&&&&&&&&&&&&&&&&&&&&&&&&&&&&&&&&&&&-  ",
" &&&&&&&&&&&&&&&&&&&&&&&&&&&&&&&&&&&&&&&&&&&&&&=   .@rF^^^Tg3&&&&&&&&&&&&&&&&&&&&&&&&&&&&&&&&&&&&&  ",
" &&&&&&&&&&&&&&&&&&&&&&&&&&&&&&&&&&&&&&&&&&&&&&=   .@wVQQQUj3&&&&&&&&&&&&&&&&&&&&&&&&&&&&&&&&&&&&&  ",
" &&&&&&&&&&&&&&&&&&&&&&&=%&&&&&&&&&&&&&&&&&&&&&=   .@8vEEYKh3&&&=&&&&&&&&&&&&&&&&&&&&&&&&&&&&&&&&&  ",
" &&&&&&&&&&&&&&&&&&&&&&&&&&&&&&&&&&&&&&&&&&&&&&=   .+8lLDLZi3&&&&&&&&&&&&&=&&&&&&&&&&&&&&&&&&&&&&=  ",
" &&&&&&&&&&&&&&&&&&&&&&&&&&&&&&&&&&&&&&&=-<53447   .+<pmMMk9>&&&&&&&&&&&&&&=&&&&&&&%&&&&&&=:<33374  ",
" &&&&&&&&&&&&&&&&&&&&&&&&&&&&&&&&&&&&&&=&5pxxxxc   .X*>8774>-&&&&&&&&&&&&&&&&&&&&&&=&&&&&&=1pxccxc  ",
" &&&&&&&&&&&&&&&&&&&&&&&=&&&&&&&&&&&&&&==9bTTTTT   ..X@@@@@#&&&&&&&&&&&&&&&&&&&&=&&&&&&&%=&9bTTTTT  ",
" &&&&&&&&&&&&&&&&&&&&&&&&&&&&&&&&&&&&&-18gJ^^^^^   .X@*;;;--&&&&&&&&&&&&&&&&&&&&&&&&&&&&:<7dJ^^^^^  ",
" &&&&-&&&&&&&&&&&&&&%&&=&&&&&&&&&&&&&&1svGY^^^^^   .o;rzzgd0>&&&&&&&&&&&&&&&&&&&&&&&&&&&2pvGT^^^^^  ",
" &&&&&&&&&&&&&&&&&&&&&&&&&&&&&&&&&=&&=wNT!~^^^^^   .+qnTTTIg3&&&&&&&&&&&&&&&&&&&&&&&&&&&wbEE!^^^^^  ",
" &&&&&&&&&&&&&&&&&&&&=&&&&&&&&&&&&&&&&wC^^^^~QWQ   .@tG^^^Tj5&&&&&&&&&&&&&&&&&&&&&&&&&%=wN^^^^!QWQ  ",
" &&&&&&&&&=&&&&&&&&&&&&&&&&&&&&&&&&&&&wF^^^^WWYR   .@tG^^^Tx3&&&&&&&&&&&&&&&&&&&&&&&&&==wV^^^^WERR  ",
" &&&&&&&&&&&&&&&&&&&&&&&&&&&&&&&&&&&&&eC^^^^QPDL   .@tF^^^Tx5&&&&&&&&&&&&&&&&&&&&&&&&&&&yV^^^^WYDL  ",
" -&&&&&&&&:&&&&&&&&:&&&&&&&&&:&&&&&&:&eC^^^^EPD    X@eH^^^Tj3&&&&&&&=&&=================9N^^^^WPD   ",
"                                                                                                    ",
"                                                                                                    "
};
