/* XPM */
static const char *wall[] = {
/* columns rows colors chars-per-pixel */
"60 60 138 2 ",
"   c #140C03",
".  c #180F04",
"X  c #1C1206",
"o  c #211507",
"O  c #231708",
"+  c #251909",
"@  c #2A1D0A",
"#  c #2F200C",
"$  c #34240E",
"%  c #38270F",
"&  c #3B280F",
"*  c #372610",
"=  c #382710",
"-  c #3C2910",
";  c #452F13",
":  c #442E13",
">  c #442F14",
",  c #422D12",
"<  c #463013",
"1  c #473013",
"2  c #473115",
"3  c #463013",
"4  c #483214",
"5  c #493214",
"6  c #4B3214",
"7  c #4B3314",
"8  c #4A3315",
"9  c #4B3315",
"0  c #4B3415",
"q  c #4C3415",
"w  c #4D3515",
"e  c #4E3515",
"r  c #4D3516",
"t  c #4E3516",
"y  c #4E3616",
"u  c #4F3616",
"i  c #4C3415",
"p  c #503616",
"a  c #513716",
"s  c #513717",
"d  c #523716",
"f  c #503716",
"g  c #513816",
"h  c #523817",
"j  c #533817",
"k  c #533917",
"l  c #543917",
"z  c #523817",
"x  c #553A18",
"c  c #563B18",
"v  c #573C19",
"b  c #563A18",
"n  c #583C19",
"m  c #593D19",
"M  c #5A3D19",
"N  c #5B3D19",
"B  c #5A3E19",
"V  c #5B3E1A",
"C  c #5C3E1A",
"Z  c #5C3F1A",
"A  c #5D3F1A",
"S  c #5C3F1B",
"D  c #5D3F1B",
"F  c #5E3F1A",
"G  c #5B3E1A",
"H  c #5D401A",
"J  c #5D401B",
"K  c #5E401A",
"L  c #5E401B",
"P  c #5F411B",
"I  c #5E401B",
"U  c #60411B",
"Y  c #60421B",
"T  c #62421B",
"R  c #60411C",
"E  c #61421C",
"W  c #62421C",
"Q  c #62431C",
"!  c #63431C",
"~  c #62431D",
"^  c #64431C",
"/  c #63441C",
"(  c #64441C",
")  c #65451C",
"_  c #64441D",
"`  c #65451D",
"'  c #66451D",
"]  c #66461D",
"[  c #67461D",
"{  c #67461E",
"}  c #67471E",
"|  c #63431C",
" . c #68461D",
".. c #68461E",
"X. c #69461E",
"o. c #68471E",
"O. c #69471E",
"+. c #6A471E",
"@. c #68471E",
"#. c #69481E",
"$. c #6A481E",
"%. c #6B481E",
"&. c #6B491E",
"*. c #6A481F",
"=. c #6B491F",
"-. c #6C491E",
";. c #6C491F",
":. c #6D4A1F",
">. c #6E4B1F",
",. c #6C491F",
"<. c #6F4B20",
"1. c #6F4C20",
"2. c #6F4B20",
"3. c #704C20",
"4. c #714C20",
"5. c #714D20",
"6. c #714D21",
"7. c #724D20",
"8. c #724D21",
"9. c #734E21",
"0. c #744F21",
"q. c #744F22",
"w. c #754F22",
"e. c #724D21",
"r. c #755022",
"t. c #765022",
"y. c #775022",
"u. c #775122",
"i. c #765022",
"p. c #785123",
"a. c #785223",
"s. c #795223",
"d. c #7A5223",
"f. c #7A5323",
"g. c #7B5323",
"h. c #7B5324",
"j. c #7B5424",
"k. c #795223",
/* pixels */
"    . + + + + + @ O + + .           . O + + + + + + + + .       . + O + @ @ + + + + O .       . O + + + + + + + + + O . ",
"  . $ ] &.&.&.&.&...&.] $ .       . $ ] &.&.&.&.&.&.&.m +       $ ] ..&.&.&...&.&.&.! @     X $ ] &.&.&.&.&.&.&.&.&.x O ",
"  $ ] d.d.h.h.h.h.d.d.d.] @     . = &.d.d.d.d.d.d.d.y.k #   . $ ..d.h.j.h.d.d.h.h.h.9.- . X % ] d.d.d.d.d.d.d.d.j.q.1 X ",
"$ q 9.d.9.....] ....] q.9.- .   $ &.d.d.d.d.d.d.d.d.y.0 # . O ] d.q.........] ..&.&.! - o - k 9.d.d.d.d.d.d.d.<.] ! - X ",
"9.q.d.9.x - - - - - - x P - X $ &.d.d.9.! ! ! ! ! ! P : $ X % 9.h..., - - - - - - - - @ + ] q.d.9./ ! ! ! ! ! 8 - - $ X ",
"d.d.d...- $ $ - - - = $ $ @ o ] d.d.d.! - % * = = = * $ @ o ] d.d.] - $ $ $ = $ $ $ $ X o ] d.d.&.- $ * = = = $ $ $ $ X ",
"d.d.d.<.8 $ $ - - - - $ $ X X ] d.d.d.! % $ - - * $ $ $ X X ] d.d.1.0 $ $ $ - - $ $ $ . X ] d.d.] - $ - - $ $ $ $ $ $ X ",
"1 : : : $ + O + + + + + o   . - , , , $ @ $ - $ + + + o   . & : : : $ + + + O + O + O . . - : : - + + + + O + + + + o   ",
", @ + + + + X   X O O + + O O + + O + . X $ @ X X $ $ + + + + + + + X . O O X   X O + + + + O O + X         X + + + + + ",
"9.P S S S q +   O q m T S T P P T P S % . O X X # S ] m P S S S P k $ O + @ X X # $ 8 T S ! P T P v $     X @ q P S S S ",
"d.d.d.d.>.8 + X $ ] d.d.d.d.d.d.d.d.d.&.%   X $ q <.d.d.d.d.d.d.d.9.l @ X X X $ k P 9.d.d.d.d.d.d.h.S o   & P 1.d.d.d.d.",
"y.y.y.y.! @ . O q 9.d.y.y.y.y.q.9.y.y.d.q . O q 9.d.d.q.q.y.y.y.y.q.P $ O X $ q 9.d.y.y.y.y.y.9.y.q.P + . 8 d.d.y.q.y.y.",
"q 0 8 x m @ X $ S d.q.P s 8 s q 8 8 q s - + : <.d.d.9.m q 0 q q q q ; $ % - x >.d.y.P q s q 8 s q m S + @ ] y.d.y.S 8 0 ",
"8 - $ - - + o q >.9.9.! : $ - * $ $ $ $ @ X 1 d.9.<.k - $ $ % - = $ $ $ = l 9.d.d.d.] - $ $ $ $ $ - , + @ T d.d.q.s $ $ ",
"$ $ # $ $ o X 8 l : 1 : - * = $ * $ $ $ +   % ..s - $ # $ $ $ $ $ $ $ # # 8 ..&.&.&.^ - # $ # # $ $ # O O q ....] : $ $ ",
". X X X X X X o o O @ @ @ # # $ $ $ @ @ O   . O X   . . . X + X X X X X X O @ @ @ @ @ X . . X X X X X X X + @ @ @ o @ # ",
"  X $ - - - - - @ @ @ o X X . . X o @ @ @ + + O O O + X .   . X $ - - % $ $ # # # # $ X   . $ - - - - - - - - - & O X . ",
"X - x >.9.9.>.9.<.>.] : $ + . X $ 8 &.&.&.>.>...>...&.q $ . . $ k >.9.! q 2 2 q 8 q S - X X - ..9.1.9.9.9.9.9.9.>., @ . ",
"$ &.y.d.q.9.9.&.] &.! 2 - O . @ q 9.y.&.1.d.d.d.d.d.d.9.8 X X - >.d.d.d.y.q.9.&.! ] &.- X - s 9.d.d.9...&.] ] &.<.s $ X ",
"9.d.d.9.x q k - - - - $ $ X   & >.d..., 8 ! ! ! ! ! ! P 8 O $ x 9.d.d.y.>.! T q - - s + X T y.d.q./ x - - - - - k 2 $ X ",
"d.d.d.] - $ $ $ $ $ $ $ $ X   - 9.d.] - $ % = & % % = $ X X 8 9.d.9.] ! s - % $ $ $ $ . o ] d.d.&.- $ $ = = $ $ - - $ X ",
"d.d.d.>.- $ $ $ $ - - $ $ X . q q.d.&.- $ $ $ $ $ $ $ % X X ! d.y.>.q = $ $ $ $ $ $ $ . o ] d.9.k $ $ $ , - $ = q 0 $ . ",
", : 1 % + @ $ $ $ - @ O X   . : 1.y.T @ O @ $ $ @ O O @ X X S S m m q $ $ $ $ @ + O O . X - 2 - @ $ $ $ $ @ + + @ $ + . ",
"  . . . . X O O O O . . . . . X - : % .   X @ + O + + @ % + $ @ + + + + @ $ @ . X + + + + + + o . o O @ @ X X + + + + + ",
"8 q q q q - X     X - q q q q q q q s q $ . X X $ q P ! >.x q q q q q % X O o + $ l T P S P ! m - .   . . X @ q T T S P ",
"d.d.d.d.y.T @   X $ P d.d.d.d.d.d.d.d.d.v o X $ q 1.d.d.d.d.d.d.d.d.h.x X X $ q T <.d.y.d.d.y.d.<.- .   X $ q >.q.q.y.y.",
"d.d.d.d...1 @ X $ m 9.d.y.y.q.q.9.9.y.] , + $ / 9.d.d.y.q.q.q.9.9.9.q.T @ + q 9.d.d.q.q.9.q.9.9.y...% . $ ] 9.T 8 0 0 0 ",
"9.9.9.9.S $ + + q 9.d.d.T q q s q q s : $ O , d.d.d.9.m x s 8 s s q q , + % 9.d.d.y.m q q s s s q s % . , d.d.l $ $ $ $ ",
"1 1 1 1 - @ O $ v q.q.9.q $ $ $ - $ $ $ @ . , q.q.9.x - - $ $ $ $ $ $ @ . , d.d.d.y.k $ $ $ $ $ $ $ $ o , d.d.>.: $ $ $ ",
"$ # $ # $ + X % : , - - $ $ $ # $ $ $ $ O   $ s - - $ $ $ $ $ $ # $ $ +   % ] ..&...S - # $ $ $ - , $ + % ....] , # $ $ ",
"X X X X X X X o X X X X X X . . . X o X X . o O X X X X . X + X X X X X . o @ @ @ @ @ o X @ # @ $ $ + . o @ @ @ o O o + ",
". @ - - - - - - - - - - $ @ .   . @ = $ $ # # $ $ $ $ @ X     X @ # # $ - - - - - - $ @ X . X @ @ @ + @ - - - - , l @   ",
"X 8 &.9.9.9.9.9.1.9.9.9.x $ X   . - T q q 8 8 8 q 8 q - # . X $ 8 s 8 S 9.9.9.9.9.<.x 8 @ . $ ! >...>.>.<.9.9.<.9.9., X ",
"- ..q.9.y.d.d.d.d.d.d.d.>.% .   X 8 q.q.y.y.q.q.9.q.9.q $ o - q T ..] ] >.] 9.d.d.9.] m O X - 9.d.y.d.d.d.d.d.d.d.9., X ",
"9.d.9.! ....! ! ! ! ] 9.! +   @ $ x >.&.<.! ! ! ! ! P 2 $ + T >.s - - - - - q ! P 8 - $ X $ k q.d.d.9.! ! ! ! ! ! P - . ",
"y.d.d.>.q - = = = $ % k , O o S S 9...s q % % $ = = $ $ $ + ] y.&.8 $ $ $ - - = $ $ $ $ X - 9.d.d.9.k = $ % $ % % % $ . ",
"d.d.d.&.- $ $ $ $ $ $ $ $ $ + ] d.d.9.q $ - - $ $ - - $ $ + ] d.d.>.8 $ $ - - $ $ $ * - X @ l P S q - - $ $ $ $ $ $ $ X ",
"; : k ! - $ $ $ $ @ + + + O X % 8 : : - $ = $ + + @ @ + O X % , : , $ + O + O O + + O o   . O + + @ $ - $ $ $ $ @ O o . ",
"X $ @ $ + + O O + X X + + + + + + @ $ X + + X X + + + + + + + + # % X             . . . . . . . . X O + O O O O + + + + ",
"x &.x q q $     X + $ s P S P m ! ] ..s q $   + q S S S S S P P ] &.s - X     X @ , q q q q q q q q $ .     X @ 8 S S S ",
"d.d.y.d.d.q . X $ q P >.d.d.q.y.d.d.d.d.y.8 . + P d.d.d.q.y.y.y.q.q.y.P @   X $ k 9.d.y.y.q.y.y.q.y.x X   X $ k 9.d.d.y.",
"y.>.S 9.] $   % / 9.y.m ..9.m ] m 9.d.y.m + X $ P d.d.9.l 0 0 8 0 8 8 , + X $ k <.y.9.x 8 8 q 8 8 8 % . X 8 / 9.y.y.9.x ",
"q 8 - q , +   , d.d.q.0 1 8 - , & 8 q q $   + k <.d.y.v - - % $ * $ $ @ O $ q 1.! k 8 - $ $ $ $ $ $ @   % <.d.y.m q T : ",
"$ $ $ $ $ @   , d.d.y.s = * $ $ $ $ $ $ +   % 9.d.d.y.k = - $ $ $ $ * + o $ m d.9.] 8 $ $ = , = $ $ +   : d.d.y.8 $ - - ",
"$ , $ # $ O   % ......P - $ , $ # # $ $ +   % &.&.&.] m - $ $ $ $ $ $ O X $ q ..&...m - $ $ $ $ $ $ O   % ..&.] , $ $ $ ",
"X X O X X X . o @ @ @ @ o o X X . X X X X . X @ @ @ @ @ + X @ @ X X X X X X O @ @ @ @ X X . . X X .     . o + @ X . + X ",
"X O $ $ - - - - - - - - - - X   o $ - - - - - - - - - , x + . + @ - - - - - $ # # $ $ @ .   . @ $ + O O O O @ # @ o .   ",
", $ 2 x >.9.9.9.9.1.9.9...@   X - 8 >.9.9.9.9.9.9.9.9.>.m O O P >.9.9.9.9.9.S 8 8 8 2 $ X   X S <.&.>.&.&.&.x 8 ! T +   ",
"% , >.y.d.d.9.9.d.y.9.q.>.@   @ = x 9.9.......] ........@   + >.d.d.d.d.d.d.d.y.q.q.] & . . $ <.d.9.......9.y.>.....@   ",
"q x 9.q.! T s q ! ! q ] >.@ . , m <.9.x - - - - - - - q +   % 9.d.9.! ! ! ! ! ! ! T 2 $ . O ] d.d./ - - - s T 0 - m @   ",
"y.y.d.9.8 * $ $ * $ $ k 8 X X ] q.] k - $ - - - % $ $ $ X X T d.d.<.0 $ * = = = = = * $ . + >.d.9.k * $ - , , - $ 2 o   ",
"d.d.d.9.q $ $ $ $ $ @ @ X   o ] 9.: $ $ * - - - - $ $ $ X . 8 q.d.d.T $ $ $ $ $ - , , @ X - 9.d...- $ * - 2 q - $ @ .   ",
": : : - + + + O o o X X .   X & - @ + + + + + + + + + @ X   + ] S x 8 $ $ $ $ - - $ $ X X & 2 2 - + O + + O O + o .     ",
". . .                 X X & 1 : 1 : % X   . .     $ 1 1 , X X % @ + + + O O O @ + $ : : : 1 1 : : 1 $ .           X @ - ",
"q q q 8 $         X - q k <.y.d.d.d.>.s $ . . X - ] d.d.q.x q q q q q q $   $ q s &.d.d.d.y.d.d.d.y.] $     X + + $ m 9.",
"d.d.d.h.&.% .   o $ T d.d.d.d.d.d.d.d.h.k .   + S d.y.q.y.d.d.d.d.d.h.d.q X 8 d.d.y.q.q.d.>.k S q.y.y.q . X @ = - k 9.y.",
"y.y.y.q.y.q . X $ s 9.y.9.q.q.q.q.q.y.d.q . X $ P y.m q s >.y.q.y.y.y.q.1 $ ..d.q.! s s ..s * - 8 m 9.1 X $ = k ] &.m >.",
"q 0 0 0 q - X $ ] 9.y.m 0 s q q q 8 q S q   $ ] 9.d.&.m , s q 8 8 q 0 , + , d.d.S 8 - , q - $ $ $ q S + o s ] 9.d.m - 2 ",
"$ $ $ $ - @ . % >.>..., $ & $ $ $ $ $ 2 :   % >.>.>.&.8 $ $ $ $ $ $ $ # X % >.&.8 $ - - $ $ $ $ $ 2 1   X s <.>.&.q $ $ ",
"X X X X X .   X @ @ @ X X X X X X X X o o   X @ @ @ @ X X X X X X X X X . X @ @ o X X X X X . X . o X     O @ @ @ O X X "
};