/* XPM */
static char *out[] = {
/* columns rows colors chars-per-pixel */
"100 100 31 1 ",
"  c #130B03",
". c #180F04",
"X c #1C1205",
"o c #211607",
"O c #241708",
"+ c #241808",
"@ c #2B1E0B",
"# c #301F0C",
"$ c #2F200C",
"% c #35250F",
"& c #38260E",
"* c #39280F",
"= c #372610",
"- c #382710",
"; c #3B2910",
": c #432E12",
"> c #463114",
", c #4D3516",
"< c #4E3618",
"1 c #513616",
"2 c #533917",
"3 c #553B19",
"4 c #5A3D19",
"5 c #5F401A",
"6 c #64441C",
"7 c #68471E",
"8 c #6C491E",
"9 c #6F4B20",
"0 c #734E21",
"q c #765022",
"w c #795223",
/* pixels */
"                                           .                    .                       .           ",
"    o:&:&&&:&::#;**;+          O**;*&:&&******%       .::#&:&::#****;**$       X*%;;*;**;;;;**:***O ",
"    *wwwwwwwwwqqwwww;X        .2wwwwwwwwwwwwwq4X      &wqwwwwwqqwwwwwww6X      *qwwwwwwwwwwwwwwww0: ",
" X@:6wwwwwwwwwwqwwww7;X      @38wwwwwwwwwwwww6:$     :7wwwwwwwwqwwwwwww7$   X$<6qwwwwwwwwwwwwwww8,@ ",
" X*6wwwwwwwwwwwwqwwww6@.    +<wwwwwwwwwwwwwww2*%X  o=6wwwwwwwwwwwwwwwwq7;+  @%6wwwwwwwwwwwwwwwww7*+ ",
" X*6wwwwwwwwwwwwq0www7*+   .4wwwwwwwwwwwwwwww2%%X  ;wwwwwwwwwwwwqqwwwww6;+ @%*6wwwwwwwwwwwwwwwww7:+ ",
"1369www9111,,1115>5qw7*+  +28wwwwwwwwwwwwwwqw2%=X  ;wwww41,1,111<<5<5>5;*+X5560wwwwwwqwwwwww5<<<>*O ",
"wwwwww84*=%%%=&&%%>675*+ .>wwwww0777777777777,%*+.o,wwww1=&%%=&&%%@%%%%%$XX7wwqww97777787777;*%*%%O ",
"wwwwww2*%=-%%==%%%%***%+X6wwwwww7:&;;-;;-;;-=%=%OX6qwwww,=%%*%%%-%-%*%%@. o6wwwww2**;-;-*-;-%*%%%=X ",
"wwwwww,*%%%%;:;;>*%%%%+.X7wwwwww7;%%%=%%%%%%%%$+.X6wwwww,==%%=%-**%%%%%@  X6wwwww2%%%%%--%==%%%%==+ ",
"wwwwww3;%%%%;>-;<%%%%@. X7wwwwww7;&%=%-===%=%%$. X6wwwww3:%%%%%*>>%%%-%@  X6wwwwq2%%-%-;=%%=%%%%%%+ ",
"wwwwww05-=%=-*==*%%%%$  X6wwwwww7==%=::-==%%%%$. X6wwwww04-%%%=%-%%%-%%%  o6wwwqq,%=-->;%=%%%%%%%=X ",
">::::::*+++X+++++++++X  .*>;;>;;;O@==;:@++++++X  .*:>:::>;++++++o++o+++o   *>>>>>$++++++++X$X$X$++X ",
"XX .  . . .         .     .X  X   O&%%@.  XX       .   .    .          . . .     .                  ",
"6>$$$$$$$$+.  +$+@@+$$++$+$$o@$o  O%%@. X$,,$$$$$@@#$$$@$+ X@$$@.  +@@$@@+$$++@+$$+       .$$$$$$$$$",
"q6,,,,<,<;$.  $;5;55;55;55;55>5;@ .@@. .+=682,>2,1,1,,,1*%+++%$+. +$%%;;55;55<<5,,>*X    .+%;2<<,,,,",
"qwwwwwwwq5$   +59qwwwwwwwwwwwwww5      %%%6wwwwwwwwwwwww2%%X.$+  X%$%%5qwwwwwwwwwwww*    +%%7wwwqwww",
"wwwwwww85;$ .$$5wqwwwwwwwwwwwwww85$  X$%;60wwwwwwwwwwwww75*X X. @$%5669wwwwwwwwwwwww5+  .5670wwwwwww",
"wwwwwww8;$+.X*;5wwwwwwwwwwqqwwwwqw*  X%;6wwwwwqwwwwwwwwwq7*$X  X$;58qwwwwwwwwwq0wwqq>$. X6wwqqqqwwww",
"wwwwwwq8*X  o;7wwwwwwwwwqqq9wwwwww*  o;7qwwwww00wwwwwwwqq7*%$.X%*;7qqwwwwwwwwwq8ww095$  X5wwwwq0wwww",
"22222286*X.X$;7wqq7555>555>5<55555$o+*50wwwwq555223222225<%*%**;55qwwq655555>55555595+ +58qqwww62222",
";*%%=%25%$.$;<7wwq7>%%%$;%%%@%@%$%$$+5qwwww065$%%%***==%$%%%;>><8wqwwq5;$$-%%@%%$%;65$ %69wqwww5%%*%",
"5>*===**%X $290qww985%%;<-%%%%%-%%+ .;wq07w7;;%%%%=*,;==%%%%%*58qwwwwwq5*-%%%%%%-%%;%$.+>8wwqw95%*%%",
">;%%%===%X $5q555555;%%*;%%%%%%-%%o  ;wq7555*%%%==%*;;==%%%%%%2qwwwwwww6*-%-%%%%%%%%%$.+;7wwqq05%%%*",
"$$$$$$%$$X.$>6;%$%%%%%--%%--%%%%%%o  %785$$$$$$%%$$$$$$$$%$$$$<878888885-$$$%$$$%%%$$$ +%577978>$%*%",
"...X.X..X  .X$X+%%%%%%%%-%;;;%%%%%o   ++X  X X  .X$$ XX...XXX X++++++o+oX.   ....  .X   .o+++++oX%%%",
"   XXX+X+XXXXX .++++++++++%%$+++++X               oX XooXX+Xoooo+oooX++X    X++++++++++o+++++++..X$X",
"   $*;;*;;;;*%X ...             X ..  X     X        $*;;;;-%%-%%%%%%%%$    +%%%%*%*%*%%---*%*%+    ",
" .$$>6666656665555>$@@@X  X@@%55<555555<55555*$$X  X$$>5575,%%%%%%%%%@>5$+  +%56666766666666666;$$X ",
" $,25wwwwwqqwwww007;;%@X .$-;5wwqq0qqqqqww8qq7;*o  X*,5wwww55><<>55>5567;+ .@*5qwwqwwwwwwwwwwwq<%$X ",
" *wwwwwwwqq0wqwwqq6;<;o  $%;7wwwwwqqwwqqwwwwww7;+  X*5wwwwwwwwqwqqqq90q7*+ @%%6wwwqw09wwqwq0wwq5%*X ",
">5wwwww955055><<5>;;*%.  $;70ww5<<9wwwwwwwwwww05% +$*7wwwwwwwwwwq55>>576$  5560wwwq065>5<<<<5395%%$ ",
"wwwwqq85%55>%%%%%-%%$$   $5qww05%%<7777777777755*.$;<6wwwwqqq87775%%%%5<. X6wwwww9775%%%%%-%->7<%=X ",
"wwwwq95-%%%%-%-%%%%%%$   +50wq0;%***;;**;;-;;-%X. $5qqwwwwq08;;;*-%%%%-$  X6wwww05*%%$%%%%%%%%--=-+ ",
"wwwwww>$%%%-%%%-%-%%%$   $50ww05%%*%%%%*%%%%%-$  X>5wwqq55<55;-%%-%%%%-@  +6wwwqq5$%%%%*;--%%->;%=+ ",
"wwwwww5%%%%%-%--*%%%%$   %5www95%%%%*%%%-%-%%-$  X6wwwqq5;%%$%-%%%%%%%%@  X6wwwq7>%%%%%>5-%%->3>*%X ",
"wwwwww5$%%%%%%%;5%%%%$  X59wwww5%%%%%%%%%%%%%>;. X6www0q75*%$%%%%%%%%%%@  o6qwq6>%%%%%%*-%%%%;55<*X ",
">;*5;*$++@%%%%-*%$++X   .*5wwww;++X$$**%$+++X$$  X56555555*%%%%%%@++++++  .*>>>%+%%%%%%%%@+++++%$+X ",
"         +%%$$%$$         %7778$    $$%$+   .....X55$$$$$$$$%%%%%+ .      .  .   +%@%%%%@. . .     .",
"          ..XX..X         .$+$$X    $$XXX$$$$$%5% X+..XX...Xo$%%+  +@@@@@@@@@@@+  ...X%@. X@@@@+$$$$",
"$$%**%%%%@X     o$--*%%%-%%%*%**%%X.XX .$%>2<<505%**-%*%%%;+ o$+XXX$;55>55;5<55;%o    XX .+%;555<,<,",
"wwwwqwww9<$    o%5wwwwwwwwwwwwwwqq;   .$$%6qwwqwqwqwwwwwwqw;    @%-->9ww8www0qqwq%       $%%7w80wqww",
"wwwwwwww05$.  +$%5qwwwwwwwwqwwwwww<+.X$%>60wwwwqqqwwwwqqwww;+ X$%>667qww0qwwqqqqq7;    X+$;80qwqwwww",
"wwwwwww055$  X$*55wwwwwwwwwqwwwwq7>$.+>>5wwwwwwqwwwwwwq0www5$ o%>5qwqqwwqqwwwqq0qq7%X  $>55w76775766",
"wwwwwww8;%%.X$$50qwwwqww9qq008qq7;%$.;qqqqwwwwqqw0qq80q808w5$ o;6qwwww00w90q90q8ww78%  *00qw5%******",
"wwwwwww6%%$.o$57wwww8555555<5555>*%$.;wwwwwww55555<55555555;$X$60wwwww55555555555555$  ;wqww>$%-%%*%",
"77887885%%@X+;7wwwww5;$$%%-*$%%%**$+.;wwwwwq7>;>;%$%%%%%$%%$+X;wwwwwww<$%%@%*%%%$%%%+  ;wwww5;%%%*%%",
";;;;;;;*%+.$%;7wwwwq5-%%%**>-%%%%%+. ;wwwww6>***-%%%%%%%%%-+  ;wwwwwww5%%%%%%%%*$%%%%@.*wwww95*%%%*%",
"-*%%%%%%%oX$;;555555*%%%%%->%%%%%%o  *q55555%%%%---%%%%%%%%+  *qqqwwww65%%%%%%%%;;;%$$.;wwwww5;%%*%*",
"%$$$%$$%%X $;5%@%$+$$%$%%$@%%$%$%$X  %6*@@+$$%$%$$%%%$$%%$$o  *788888885%$$%%%%%-;5%%$.%888775%$$$%%",
"X XX X X    XX     .... .  . ... .   X+.  .... X X$$ .. . .   Xo+o+++++o..X$%%%%--%%$  X+++++o....$$",
" XoXoooo+ooooooo++++X++.    .+++o+oooo++o+oo+XX   XX X+XooooXooo++X+ooooo. o@++++$$X. X++Xooooo$$.XX",
" X%%**;;;%;%--;-%-*%-%%+    o%%%%%%%%%%%%%%%%%@      +%%%%$$****------%%%+    X.     X$;;;;;;;;55X  ",
" o$557576677666677765%%+    @;7>%%%%%%%%%%%%%%%@X  X$$%$%%%57666667676>$%$@ .@;555555556576557506*X ",
" $57wwwwqwwwwwqwwwww5;*+    $>05>55>5><<5<<55%%-o X$%;555;55wwqwwwwwqw555*@ X*7www9qwwwwwwwwwwww9;$ ",
" *8qwwwwwwwwwwwwwwwqq7*+    $5qqqwqqwqqq9qq9q5%%+ $%*7qqwwwwwwwwwwwwwwqq0;  +%6qwqqqwwwwwwwwwwww6;X ",
"56ww9580wwwwwwwwwwwqw6@   X@+5qqqqwwwwwwqqwww5%%+.5555>55<5>55;59www855>5$ o$;7wwwwwwqqwwwwwwwww9;+ ",
"9www936698777777779q75.  +$%*5q68q97777777776<-%+X5q85;%%%%%$%%%48775%%%$+ $;>7wwwqq9969777777775;X ",
"qqwwqq555;;--;;-%*595$  .55%6q05<95%****;;;-%%%%+X6q005%%%%%--%%-;;-$%%-$+ $58wwwwwq5;-;***;*;*;;%X ",
"wqwwww5;-%---%%-%$%5*$@.X6858q95-5%%%-%%%%%%%%%%+X7wwq95;%%%%-;;-%-%%%%-;$ $5wwwww95;%%%%-%%%-%%%%X ",
"wwwwqw5%%%%%%%%%%%%%%%%+X7qqwww5>%%%*%%%%%*-%*%%+X7qwwww5;%%%%;5-%%%%%%-5$ @;99q995%%;%-%%%%%%%%%-+ ",
"wwwwqq>%%%%%%-%-%%%*%%%+X7wwwww05-%->>%%%%;<%%%%+X7qwwww95-%%-%-%%%%-%-%%+  $;;;;;;%;>-%-%-%%-%%-%X ",
"<;>;5q5%-%%%%%%$+++++++X %;5;>;>*%%%;%++++$$@+++X *;;>;>;;o+oo++oo++++oo+    +++++$%;;-%%%%%-$++ooX ",
" .XX$7*$%%$%$%%+    . .      X+ .%%$%+         . . X .XX.                        ..@%%$%%$$$$$X  X  ",
" $5oX$XXX.X..XX. X$$$$$$$$$$+%5$ ...X  O$@@$$$$$$+$$$$*5$                           ..X..XXX.o@@$$$$",
"$575%%%%*X    XXX$;<>5>,5>>5550,&&&#. .@:,,,,,,,,,,2,,5w,%%+X     XX+%%%--%%%%*%%%&&o     .XX@,,,,,,",
"qwwwwwqqq;    $%%*<0wwww9wwwwwqqwww6O  @,wwwwwwwwwwwwwqwwwq2$    X%-,0qwwwwwqwwwwwww;     X%%,0wwwww",
"qqwwwwwwq%  .$$>558qwwww0qwwwwwwwww6O  @2wwwwwwqwwwwwwwwwwq5$.  X@%27qwwwwwwwwwwwwww,O   o@=28wwwwwq",
"wwq77qq07%  $>>5wwq50wq960080wwwww6,o X$,wwwww0666666666666>$..X$;,8www0959559666666:+  o;,,8wwwww96",
"wqq>5qq7;+  ;qqqww7;5wq5;85;7qwwww:. X%%,wwwww8:************$XX%%,0qwww7;;%--*****--O  o;600qqwwww4;",
"555--55>*X  ;qwwww7*>5<;;5;*;55522@  o*26wwww6,*;>*%====%%%$X$$*27w5222>*%%%%%%-&%%=o  #50www832403%",
"$$%%%%%%%X  ;wwwww5;%*%%%$%%%%$$%%o  +,8wwwww2%=;>*%%===%*%X $*;7qw4>>;*-%%%-;-%%&%&o  *wqwww6;%:61*",
"%%%%%%%-%+  ;wwwww6-%---%%%%%-%-%=X  =0qwwwwq5%%**%%%%%%%==+ $=;7ww000,%%%%%;<;%=%*-.  :wwwww6*%%**%",
"%*;;%%%%%+  ;wwwww85>%-;;*%%%%%%=%+  *wwwwwqq62;%%%%%%%%%==X.$=*7qwwwq6,***%;;;-%%%-X  :wwwww7-%%%%%",
"%;5%%$$%@.  -8778878<$$;5%$$$$%$$%X  *888888775*%$%%%%$%%$%X $%=48888885%%%$$$$$%###o  #888874%%%%%%",
".XX... ..   X+++++++X .......X X..    oO++++++X..X$%%+ . ..  . XoOO+Oo++X X .......    .+o+OOo. X%o ",
"   @@ooooo+ooo+ooooooo$X    X+oooooXo+X+++X+X+$*+ XO+. ++X++X++Xoooooo+XXX     .X.         ooX   oX ",
"  X;;%----;----;--;;%-5@   X@%--;*;;********;*>9>   ..+********=*%%%=%==%+    .o;O . . . .O%%@.     ",
";%@;;-5666666666677575@X  +;-;766666666666666670>  $335666666665:%%%=%%=%+    =46434433343,%%:43:X  ",
"5-%;3<6qwwwwwwwwqwwqq5X   $<*5qqwwwwwwwwwwwwww85$  =wwwwwwwwwwwq4,,2,2,>*+    2qwwwwwwwwww71,4ww4.  ",
"%*;6wwwwwwwqwwwqqqwww5X  $%%%590qwwqwwwwwwwwqw5X   :wwwwwwwwwwwwwwwwwqw7;X   .4wwwwwwwwwwwwwwqqw5X  ",
"%%;6wwwwwq055ww0w55qw5o  $%$55qq82,22,,,,,2,<55X   ;wwwwwwwwwwwwwwwqwq6>;X  @28www91,,,,59wq52265X  ",
">>>7ww06965;<6997><0q5  .;;57qw95=%==%==%%%*%52X  +,wwww88777777777787,%%+  *wwwww7-%%==*577>*%55X  ",
"0qqqww<**-*%--;-*%>0q5X X5wwq005==%=%=%%*%%*%%$   50wwww,;-;-;;;;;-;;-==%o  :wwwww7;=%=*%%**%%$55   ",
"wwwwww9<-%%%%%%%%%;5;$  X6wq55>*%=%->:=:;%%%%%$  X6wwwww72%%%%=%=%=%=====+  :qwww6,=%%=;<;<;*%%>;X  ",
"wwwwww95*%%%-%-%%%$$X   X7wq5$%%%%=;<:%:;%%%%;$.  19wwwww7;%%*%%%%%;;-;=%X X>wwww,%====;5<55;**$+   ",
"qqwwww5;%%*%%%=$%o.X    X7wq<%%%%%==;=%*;%%%%;;X  o>wwwwq8;%%%*%%-%><<1:X X28wwww1%%=%==%%;;;;%$    ",
">>>>>;$X$X$X++X.+. +X   X*;;$++++++o++Oo$X$X+$$X   :q6343,-%%%%%%;>;===@  .*>>>>:#+o++++++X++XX.    ",
"                  .$X XXXXXoXXX.          .oXXoX   #9:##%#%%#%%@$;<o..XXXXXXXXXXXXXX              .X",
"                   ..X555555555$    O.    :55645#  X@Xo.......X.XXo.@455555556555555@          .$$>5",
"%%%&&%@@        .$***>0qwwwwwww<&&o OX .O&6wwwww4#&&&&&&&&&*#.  $-=%,0wwwwwqwwwwwwww<$.    XXX.@*<6w",
"qqwwwww4        *5wwwwwwwwwwwwwqww*    #1wwwwwwwwwwwwwwwwwww6O X5wwwwwwwwwwqwwwwwwqqq9X   .%%%%%>0ww",
"wwwwwww95$    $$%6wwwwwwwwwwwwwwww:    @,wwwwwwwwwwwwwwwwwww6O X6wwwwwwwwwwq5><5wwwwq6+  o@%%%%<7qqw",
"wwwwwwwww*   X$*>8wwwqwwwwwqwwwwww;  .o#1ww966669wwwwwwwwwww6oo*6www087659q9<%%>959qq6+.o%%%;5;5q78w",
"wwwwwwww0*  X$%<0qww0qq0ww0qq0wwww*  X%%1ww6:***4wwwwwwwwwww6O*0wwww92:;;50>;%%***>0q6oX%%%%5qww8;5w",
"222222115*X.$556ww75>55>55>55>5540*  #446ww9441*,6313111311:&.:wwww4<,:-;<5;*%%%%%>q5%.X%5559wq7>=>,",
"*%%%%%;;-$+ ;wwwww6*%*;-==%%%=%%>0*  *wwwwwww94:;>;%%=-%%==+. *wwww,-,;;>>>-===%%%>q;  X;7wwwww3*%%=",
"*%%===;>-+  ;wwwww6*%*>;%%=%=-%=>q*  *wwwwwww1*%%*%%%%%%===%$ *www0,=-:>--====%%-*>q;  X;9wwwqw5>===",
"ooO+Xo@@+.  O:::::*oO+@@+o++X++X@:+  o:::::::#OOoooo+++X+X++X +::::@ooO@@X+++XX+XX$;+   +=>>:::%$X++",
"                                                                            .                       "
};